STARTFONT 2.1
COMMENT $Xorg: $
COMMENT ISO10646-1 extension by Markus Kuhn <mkuhn@acm.org>, 2001-03-20
COMMENT  (c) Copyright Bigelow & Holmes 1986, 1985. Lucida is a registered
COMMENT  trademark of Bigelow & Holmes. See LEGAL NOTICE file for terms 
COMMENT  of the license. 
FONT -B&H-Lucida-Medium-I-Normal-Sans-11-80-100-100-P-62-ISO10646-1
SIZE 8 100 100
FONTBOUNDINGBOX 20 17 -6 -5
STARTPROPERTIES 22
COMMENT Begin LogicalFontDescription
FONTNAME_REGISTRY ""
FOUNDRY "B&H"
FAMILY_NAME "Lucida"
WEIGHT_NAME "Medium"
SLANT "I"
SETWIDTH_NAME "Normal"
ADD_STYLE_NAME "Sans"
PIXEL_SIZE 11
POINT_SIZE 80
RESOLUTION_X 100
RESOLUTION_Y 100
SPACING "P"
AVERAGE_WIDTH 62
CHARSET_REGISTRY "ISO10646"
CHARSET_ENCODING "1"
COMMENT END LogicalFontDescription
FONT_ASCENT 10
FONT_DESCENT 3
DEFAULT_CHAR 0
COPYRIGHT "Copyright Bigelow & Holmes 1986, 1985."
FACE_NAME "Lucida Sans Italic"
X_HEIGHT 6
CAP_HEIGHT 8
ENDPROPERTIES
CHARS 723
STARTCHAR char0
ENCODING 0
SWIDTH 735 0
DWIDTH 8 0
BBX 7 7 1 0
BITMAP
AA
00
82
00
82
00
AA
ENDCHAR
STARTCHAR space
ENCODING 32
SWIDTH 316 0
DWIDTH 3 0
BBX 1 1 0 0
BITMAP
00
ENDCHAR
STARTCHAR exclam
ENCODING 33
SWIDTH 193 0
DWIDTH 3 0
BBX 3 8 1 0
BITMAP
20
20
40
40
40
40
00
80
ENDCHAR
STARTCHAR quotedbl
ENCODING 34
SWIDTH 361 0
DWIDTH 4 0
BBX 3 3 2 5
BITMAP
A0
A0
A0
ENDCHAR
STARTCHAR numbersign
ENCODING 35
SWIDTH 633 0
DWIDTH 7 0
BBX 7 8 1 0
BITMAP
1A
14
7E
28
28
FC
50
B0
ENDCHAR
STARTCHAR dollar
ENCODING 36
SWIDTH 633 0
DWIDTH 7 0
BBX 5 10 2 -1
BITMAP
10
38
50
50
20
30
28
30
F0
40
ENDCHAR
STARTCHAR percent
ENCODING 37
SWIDTH 741 0
DWIDTH 8 0
BBX 8 8 1 0
BITMAP
33
52
54
68
16
2A
4A
8C
ENDCHAR
STARTCHAR ampersand
ENCODING 38
SWIDTH 701 0
DWIDTH 8 0
BBX 7 8 1 0
BITMAP
1C
24
2C
30
D2
9E
8C
74
ENDCHAR
STARTCHAR quotesingle
ENCODING 39
SWIDTH 217 0
DWIDTH 2 0
BBX 1 3 2 5
BITMAP
80
80
80
ENDCHAR
STARTCHAR parenleft
ENCODING 40
SWIDTH 325 0
DWIDTH 4 0
BBX 4 10 1 -2
BITMAP
10
20
40
40
80
80
80
80
80
40
ENDCHAR
STARTCHAR parenright
ENCODING 41
SWIDTH 325 0
DWIDTH 4 0
BBX 4 10 0 -2
BITMAP
20
20
10
10
10
20
20
20
40
80
ENDCHAR
STARTCHAR asterisk
ENCODING 42
SWIDTH 470 0
DWIDTH 5 0
BBX 4 4 2 4
BITMAP
20
F0
60
A0
ENDCHAR
STARTCHAR plus
ENCODING 43
SWIDTH 633 0
DWIDTH 7 0
BBX 7 7 1 0
BITMAP
08
10
10
FE
10
10
20
ENDCHAR
STARTCHAR comma
ENCODING 44
SWIDTH 316 0
DWIDTH 3 0
BBX 2 4 1 -2
BITMAP
40
C0
40
80
ENDCHAR
STARTCHAR hyphen
ENCODING 45
SWIDTH 313 0
DWIDTH 3 0
BBX 3 1 1 3
BITMAP
E0
ENDCHAR
STARTCHAR period
ENCODING 46
SWIDTH 316 0
DWIDTH 3 0
BBX 2 1 1 0
BITMAP
C0
ENDCHAR
STARTCHAR slash
ENCODING 47
SWIDTH 482 0
DWIDTH 5 0
BBX 7 10 0 -2
BITMAP
02
04
08
08
10
10
20
40
40
80
ENDCHAR
STARTCHAR zero
ENCODING 48
SWIDTH 633 0
DWIDTH 7 0
BBX 6 8 1 0
BITMAP
38
4C
44
84
84
88
98
70
ENDCHAR
STARTCHAR one
ENCODING 49
SWIDTH 633 0
DWIDTH 7 0
BBX 3 8 3 0
BITMAP
E0
20
40
40
40
40
C0
80
ENDCHAR
STARTCHAR two
ENCODING 50
SWIDTH 633 0
DWIDTH 7 0
BBX 6 8 1 0
BITMAP
38
64
04
08
10
20
40
F8
ENDCHAR
STARTCHAR three
ENCODING 51
SWIDTH 633 0
DWIDTH 7 0
BBX 6 8 1 0
BITMAP
78
0C
08
70
18
08
18
F0
ENDCHAR
STARTCHAR four
ENCODING 52
SWIDTH 633 0
DWIDTH 7 0
BBX 6 8 1 0
BITMAP
0C
1C
38
28
48
FC
08
10
ENDCHAR
STARTCHAR five
ENCODING 53
SWIDTH 633 0
DWIDTH 7 0
BBX 6 8 1 0
BITMAP
3C
40
40
70
18
08
18
F0
ENDCHAR
STARTCHAR six
ENCODING 54
SWIDTH 633 0
DWIDTH 7 0
BBX 6 8 1 0
BITMAP
1C
60
40
F8
C8
88
88
70
ENDCHAR
STARTCHAR seven
ENCODING 55
SWIDTH 633 0
DWIDTH 7 0
BBX 6 8 2 0
BITMAP
7C
0C
18
30
20
40
C0
80
ENDCHAR
STARTCHAR eight
ENCODING 56
SWIDTH 633 0
DWIDTH 7 0
BBX 6 8 1 0
BITMAP
38
44
4C
30
58
88
88
70
ENDCHAR
STARTCHAR nine
ENCODING 57
SWIDTH 633 0
DWIDTH 7 0
BBX 6 8 1 0
BITMAP
38
44
44
4C
7C
08
18
E0
ENDCHAR
STARTCHAR colon
ENCODING 58
SWIDTH 316 0
DWIDTH 3 0
BBX 2 6 1 0
BITMAP
40
00
00
00
00
80
ENDCHAR
STARTCHAR semicolon
ENCODING 59
SWIDTH 316 0
DWIDTH 3 0
BBX 3 8 1 -2
BITMAP
20
00
00
00
00
C0
80
80
ENDCHAR
STARTCHAR less
ENCODING 60
SWIDTH 633 0
DWIDTH 7 0
BBX 7 7 1 0
BITMAP
02
0C
30
C0
60
18
04
ENDCHAR
STARTCHAR equal
ENCODING 61
SWIDTH 633 0
DWIDTH 7 0
BBX 7 4 1 1
BITMAP
FE
00
00
FE
ENDCHAR
STARTCHAR greater
ENCODING 62
SWIDTH 633 0
DWIDTH 7 0
BBX 7 7 0 0
BITMAP
40
30
0C
06
18
60
80
ENDCHAR
STARTCHAR question
ENCODING 63
SWIDTH 464 0
DWIDTH 5 0
BBX 4 8 1 0
BITMAP
F0
10
10
20
40
C0
00
80
ENDCHAR
STARTCHAR at
ENCODING 64
SWIDTH 858 0
DWIDTH 9 0
BBX 8 8 1 0
BITMAP
1E
63
9D
A5
B9
BE
C0
78
ENDCHAR
STARTCHAR A
ENCODING 65
SWIDTH 687 0
DWIDTH 8 0
BBX 7 8 0 0
BITMAP
0C
0C
14
34
24
7E
42
82
ENDCHAR
STARTCHAR B
ENCODING 66
SWIDTH 593 0
DWIDTH 7 0
BBX 6 8 1 0
BITMAP
7C
44
48
78
48
C8
88
F0
ENDCHAR
STARTCHAR C
ENCODING 67
SWIDTH 679 0
DWIDTH 7 0
BBX 7 8 1 0
BITMAP
1E
60
40
C0
80
80
C4
78
ENDCHAR
STARTCHAR D
ENCODING 68
SWIDTH 743 0
DWIDTH 8 0
BBX 8 8 1 0
BITMAP
3E
63
41
41
41
42
86
F8
ENDCHAR
STARTCHAR E
ENCODING 69
SWIDTH 547 0
DWIDTH 6 0
BBX 6 8 1 0
BITMAP
7C
40
40
78
40
C0
80
F8
ENDCHAR
STARTCHAR F
ENCODING 70
SWIDTH 536 0
DWIDTH 6 0
BBX 6 8 1 0
BITMAP
7C
40
40
40
78
C0
80
80
ENDCHAR
STARTCHAR G
ENCODING 71
SWIDTH 702 0
DWIDTH 8 0
BBX 7 8 1 0
BITMAP
1E
60
40
80
84
84
C4
78
ENDCHAR
STARTCHAR H
ENCODING 72
SWIDTH 735 0
DWIDTH 8 0
BBX 8 8 1 0
BITMAP
21
43
42
7E
42
42
86
84
ENDCHAR
STARTCHAR I
ENCODING 73
SWIDTH 289 0
DWIDTH 3 0
BBX 3 8 1 0
BITMAP
20
20
40
40
40
40
80
80
ENDCHAR
STARTCHAR J
ENCODING 74
SWIDTH 408 0
DWIDTH 4 0
BBX 5 10 0 -2
BITMAP
08
08
18
10
10
10
10
10
20
E0
ENDCHAR
STARTCHAR K
ENCODING 75
SWIDTH 635 0
DWIDTH 7 0
BBX 7 8 1 0
BITMAP
26
4C
58
70
70
50
88
8C
ENDCHAR
STARTCHAR L
ENCODING 76
SWIDTH 545 0
DWIDTH 6 0
BBX 5 8 1 0
BITMAP
60
40
40
40
40
C0
80
F8
ENDCHAR
STARTCHAR M
ENCODING 77
SWIDTH 828 0
DWIDTH 9 0
BBX 9 8 1 0
BITMAP
2180
6180
5300
5500
5500
5900
9900
8200
ENDCHAR
STARTCHAR N
ENCODING 78
SWIDTH 741 0
DWIDTH 8 0
BBX 8 8 1 0
BITMAP
21
61
52
52
4A
4A
86
84
ENDCHAR
STARTCHAR O
ENCODING 79
SWIDTH 777 0
DWIDTH 9 0
BBX 8 8 1 0
BITMAP
1E
22
43
81
82
82
C4
78
ENDCHAR
STARTCHAR P
ENCODING 80
SWIDTH 575 0
DWIDTH 6 0
BBX 6 8 1 0
BITMAP
7C
44
44
48
70
C0
80
80
ENDCHAR
STARTCHAR Q
ENCODING 81
SWIDTH 777 0
DWIDTH 9 0
BBX 8 10 1 -2
BITMAP
1E
22
43
81
82
82
C4
78
0C
03
ENDCHAR
STARTCHAR R
ENCODING 82
SWIDTH 632 0
DWIDTH 7 0
BBX 6 8 1 0
BITMAP
7C
44
44
48
70
D0
88
8C
ENDCHAR
STARTCHAR S
ENCODING 83
SWIDTH 553 0
DWIDTH 6 0
BBX 6 8 1 0
BITMAP
3C
60
60
30
18
08
88
F0
ENDCHAR
STARTCHAR T
ENCODING 84
SWIDTH 623 0
DWIDTH 7 0
BBX 7 8 1 0
BITMAP
FE
10
10
20
20
20
20
60
ENDCHAR
STARTCHAR U
ENCODING 85
SWIDTH 693 0
DWIDTH 8 0
BBX 7 8 1 0
BITMAP
42
42
44
C4
84
84
88
78
ENDCHAR
STARTCHAR V
ENCODING 86
SWIDTH 687 0
DWIDTH 8 0
BBX 7 8 2 0
BITMAP
82
84
C4
48
58
50
60
60
ENDCHAR
STARTCHAR W
ENCODING 87
SWIDTH 886 0
DWIDTH 10 0
BBX 9 8 2 0
BITMAP
8880
8880
9900
9900
AA00
AA00
CC00
CC00
ENDCHAR
STARTCHAR X
ENCODING 88
SWIDTH 620 0
DWIDTH 7 0
BBX 8 8 0 0
BITMAP
23
32
14
18
18
2C
44
C6
ENDCHAR
STARTCHAR Y
ENCODING 89
SWIDTH 608 0
DWIDTH 7 0
BBX 6 8 2 0
BITMAP
8C
48
50
70
20
60
40
40
ENDCHAR
STARTCHAR Z
ENCODING 90
SWIDTH 578 0
DWIDTH 6 0
BBX 7 8 0 0
BITMAP
3E
04
08
18
30
60
40
FC
ENDCHAR
STARTCHAR bracketleft
ENCODING 91
SWIDTH 325 0
DWIDTH 4 0
BBX 4 10 1 -2
BITMAP
30
20
40
40
40
40
40
80
80
C0
ENDCHAR
STARTCHAR backslash
ENCODING 92
SWIDTH 482 0
DWIDTH 5 0
BBX 3 10 2 -2
BITMAP
80
80
40
40
40
40
40
40
20
20
ENDCHAR
STARTCHAR bracketright
ENCODING 93
SWIDTH 325 0
DWIDTH 4 0
BBX 4 10 0 -2
BITMAP
30
10
10
20
20
20
20
20
40
C0
ENDCHAR
STARTCHAR asciicircum
ENCODING 94
SWIDTH 633 0
DWIDTH 7 0
BBX 6 7 1 1
BITMAP
08
18
18
28
68
44
84
ENDCHAR
STARTCHAR underscore
ENCODING 95
SWIDTH 500 0
DWIDTH 6 0
BBX 5 1 0 -1
BITMAP
F8
ENDCHAR
STARTCHAR grave
ENCODING 96
SWIDTH 572 0
DWIDTH 6 0
BBX 2 1 4 7
BITMAP
C0
ENDCHAR
STARTCHAR a
ENCODING 97
SWIDTH 608 0
DWIDTH 7 0
BBX 6 6 1 0
BITMAP
3C
64
4C
98
B8
E8
ENDCHAR
STARTCHAR b
ENCODING 98
SWIDTH 608 0
DWIDTH 7 0
BBX 6 8 1 0
BITMAP
20
40
5C
74
64
48
98
F0
ENDCHAR
STARTCHAR c
ENCODING 99
SWIDTH 503 0
DWIDTH 6 0
BBX 5 6 1 0
BITMAP
38
40
80
80
90
70
ENDCHAR
STARTCHAR d
ENCODING 100
SWIDTH 608 0
DWIDTH 7 0
BBX 6 8 1 0
BITMAP
04
04
3C
48
48
98
B8
F8
ENDCHAR
STARTCHAR e
ENCODING 101
SWIDTH 529 0
DWIDTH 6 0
BBX 5 6 1 0
BITMAP
38
48
90
E0
88
70
ENDCHAR
STARTCHAR f
ENCODING 102
SWIDTH 383 0
DWIDTH 4 0
BBX 5 11 1 -2
BITMAP
18
20
20
F0
40
40
40
40
C0
80
80
ENDCHAR
STARTCHAR g
ENCODING 103
SWIDTH 608 0
DWIDTH 7 0
BBX 6 8 1 -2
BITMAP
1C
24
4C
C8
58
68
88
F0
ENDCHAR
STARTCHAR h
ENCODING 104
SWIDTH 620 0
DWIDTH 7 0
BBX 6 8 1 0
BITMAP
20
60
5C
74
64
44
88
88
ENDCHAR
STARTCHAR i
ENCODING 105
SWIDTH 289 0
DWIDTH 3 0
BBX 3 8 1 0
BITMAP
20
00
60
40
40
40
80
80
ENDCHAR
STARTCHAR j
ENCODING 106
SWIDTH 325 0
DWIDTH 4 0
BBX 5 10 0 -2
BITMAP
08
00
18
10
10
10
10
10
20
C0
ENDCHAR
STARTCHAR k
ENCODING 107
SWIDTH 572 0
DWIDTH 6 0
BBX 6 8 1 0
BITMAP
20
40
4C
50
60
70
90
88
ENDCHAR
STARTCHAR l
ENCODING 108
SWIDTH 289 0
DWIDTH 3 0
BBX 3 8 1 0
BITMAP
20
20
40
40
40
40
80
80
ENDCHAR
STARTCHAR m
ENCODING 109
SWIDTH 934 0
DWIDTH 10 0
BBX 9 6 1 0
BITMAP
5980
6A80
6C80
C880
8900
8900
ENDCHAR
STARTCHAR n
ENCODING 110
SWIDTH 620 0
DWIDTH 7 0
BBX 6 6 1 0
BITMAP
5C
74
64
44
88
88
ENDCHAR
STARTCHAR o
ENCODING 111
SWIDTH 566 0
DWIDTH 6 0
BBX 5 6 1 0
BITMAP
38
48
88
88
98
70
ENDCHAR
STARTCHAR p
ENCODING 112
SWIDTH 608 0
DWIDTH 7 0
BBX 6 8 1 -2
BITMAP
7C
74
64
48
48
F0
80
80
ENDCHAR
STARTCHAR q
ENCODING 113
SWIDTH 608 0
DWIDTH 7 0
BBX 6 8 1 -2
BITMAP
3C
64
48
98
B8
E8
08
10
ENDCHAR
STARTCHAR r
ENCODING 114
SWIDTH 478 0
DWIDTH 5 0
BBX 5 6 1 0
BITMAP
58
60
60
C0
80
80
ENDCHAR
STARTCHAR s
ENCODING 115
SWIDTH 489 0
DWIDTH 5 0
BBX 5 6 1 0
BITMAP
38
40
60
30
90
F0
ENDCHAR
STARTCHAR t
ENCODING 116
SWIDTH 383 0
DWIDTH 4 0
BBX 4 7 1 0
BITMAP
60
F0
40
40
80
80
60
ENDCHAR
STARTCHAR u
ENCODING 117
SWIDTH 620 0
DWIDTH 7 0
BBX 6 6 1 0
BITMAP
44
44
88
98
B8
E8
ENDCHAR
STARTCHAR v
ENCODING 118
SWIDTH 545 0
DWIDTH 6 0
BBX 5 6 2 0
BITMAP
88
90
90
A0
A0
40
ENDCHAR
STARTCHAR w
ENCODING 119
SWIDTH 795 0
DWIDTH 9 0
BBX 8 6 1 0
BITMAP
99
9A
AA
AC
CC
C8
ENDCHAR
STARTCHAR x
ENCODING 120
SWIDTH 541 0
DWIDTH 6 0
BBX 6 6 1 0
BITMAP
64
28
30
30
50
88
ENDCHAR
STARTCHAR y
ENCODING 121
SWIDTH 548 0
DWIDTH 6 0
BBX 6 8 1 -2
BITMAP
C4
48
58
50
60
60
40
80
ENDCHAR
STARTCHAR z
ENCODING 122
SWIDTH 536 0
DWIDTH 6 0
BBX 6 6 0 0
BITMAP
7C
08
10
20
40
F8
ENDCHAR
STARTCHAR braceleft
ENCODING 123
SWIDTH 325 0
DWIDTH 4 0
BBX 4 10 1 -2
BITMAP
30
20
60
40
C0
40
40
80
80
40
ENDCHAR
STARTCHAR bar
ENCODING 124
SWIDTH 233 0
DWIDTH 3 0
BBX 3 10 0 -2
BITMAP
20
20
40
40
40
40
40
40
80
80
ENDCHAR
STARTCHAR braceright
ENCODING 125
SWIDTH 325 0
DWIDTH 4 0
BBX 4 10 0 -2
BITMAP
20
10
20
20
30
20
40
40
40
C0
ENDCHAR
STARTCHAR asciitilde
ENCODING 126
SWIDTH 633 0
DWIDTH 7 0
BBX 7 3 1 2
BITMAP
62
92
8C
ENDCHAR
STARTCHAR space
ENCODING 160
SWIDTH 316 0
DWIDTH 3 0
BBX 1 1 0 0
BITMAP
00
ENDCHAR
STARTCHAR exclamdown
ENCODING 161
SWIDTH 193 0
DWIDTH 3 0
BBX 3 8 1 -2
BITMAP
20
00
40
40
40
40
80
80
ENDCHAR
STARTCHAR cent
ENCODING 162
SWIDTH 633 0
DWIDTH 7 0
BBX 5 8 2 0
BITMAP
10
38
50
90
90
A0
78
40
ENDCHAR
STARTCHAR sterling
ENCODING 163
SWIDTH 633 0
DWIDTH 7 0
BBX 6 8 1 0
BITMAP
1C
20
20
70
20
40
40
F8
ENDCHAR
STARTCHAR currency
ENCODING 164
SWIDTH 633 0
DWIDTH 7 0
BBX 8 8 0 0
BITMAP
41
3A
24
24
44
24
7C
86
ENDCHAR
STARTCHAR yen
ENCODING 165
SWIDTH 633 0
DWIDTH 7 0
BBX 7 8 2 0
BITMAP
C6
44
68
30
F8
F8
20
40
ENDCHAR
STARTCHAR brokenbar
ENCODING 166
SWIDTH 233 0
DWIDTH 3 0
BBX 3 10 0 -2
BITMAP
20
20
20
40
00
00
40
80
80
80
ENDCHAR
STARTCHAR section
ENCODING 167
SWIDTH 633 0
DWIDTH 7 0
BBX 6 10 1 -2
BITMAP
3C
60
40
70
48
48
38
08
88
F0
ENDCHAR
STARTCHAR dieresis
ENCODING 168
SWIDTH 566 0
DWIDTH 6 0
BBX 3 1 3 7
BITMAP
A0
ENDCHAR
STARTCHAR copyright
ENCODING 169
SWIDTH 858 0
DWIDTH 9 0
BBX 8 8 2 0
BITMAP
3C
42
9D
A1
A1
B9
42
3C
ENDCHAR
STARTCHAR ordfeminine
ENCODING 170
SWIDTH 392 0
DWIDTH 4 0
BBX 4 5 1 3
BITMAP
70
50
90
F0
E0
ENDCHAR
STARTCHAR guillemotleft
ENCODING 171
SWIDTH 527 0
DWIDTH 6 0
BBX 5 6 1 0
BITMAP
28
50
B0
A0
50
50
ENDCHAR
STARTCHAR logicalnot
ENCODING 172
SWIDTH 633 0
DWIDTH 7 0
BBX 7 4 1 1
BITMAP
FE
02
02
02
ENDCHAR
STARTCHAR hyphen
ENCODING 173
SWIDTH 313 0
DWIDTH 3 0
BBX 3 1 1 3
BITMAP
E0
ENDCHAR
STARTCHAR registered
ENCODING 174
SWIDTH 633 0
DWIDTH 7 0
BBX 5 5 2 3
BITMAP
70
B8
A8
A8
70
ENDCHAR
STARTCHAR macron
ENCODING 175
SWIDTH 566 0
DWIDTH 6 0
BBX 3 1 3 7
BITMAP
E0
ENDCHAR
STARTCHAR degree
ENCODING 176
SWIDTH 269 0
DWIDTH 3 0
BBX 2 2 2 6
BITMAP
C0
C0
ENDCHAR
STARTCHAR plusminus
ENCODING 177
SWIDTH 633 0
DWIDTH 7 0
BBX 7 7 0 0
BITMAP
08
08
7E
10
10
00
FC
ENDCHAR
STARTCHAR twosuperior
ENCODING 178
SWIDTH 392 0
DWIDTH 4 0
BBX 4 5 -5 3
BITMAP
70
10
20
40
E0
ENDCHAR
STARTCHAR threesuperior
ENCODING 179
SWIDTH 392 0
DWIDTH 4 0
BBX 3 5 -5 3
BITMAP
60
20
60
20
C0
ENDCHAR
STARTCHAR acute
ENCODING 180
SWIDTH 566 0
DWIDTH 6 0
BBX 3 1 4 7
BITMAP
E0
ENDCHAR
STARTCHAR mu
ENCODING 181
SWIDTH 627 0
DWIDTH 7 0
BBX 6 8 1 -2
BITMAP
44
44
4C
48
58
E8
80
80
ENDCHAR
STARTCHAR paragraph
ENCODING 182
SWIDTH 633 0
DWIDTH 7 0
BBX 5 10 2 -2
BITMAP
F8
E8
E8
70
30
50
50
50
50
60
ENDCHAR
STARTCHAR periodcentered
ENCODING 183
SWIDTH 316 0
DWIDTH 7 0
BBX 2 1 3 3
BITMAP
C0
ENDCHAR
STARTCHAR cedilla
ENCODING 184
SWIDTH 566 0
DWIDTH 6 0
BBX 2 3 2 -2
BITMAP
40
40
C0
ENDCHAR
STARTCHAR onesuperior
ENCODING 185
SWIDTH 392 0
DWIDTH 4 0
BBX 2 5 -6 3
BITMAP
C0
40
80
80
80
ENDCHAR
STARTCHAR ordmasculine
ENCODING 186
SWIDTH 392 0
DWIDTH 4 0
BBX 4 5 1 3
BITMAP
30
50
90
90
E0
ENDCHAR
STARTCHAR guillemotright
ENCODING 187
SWIDTH 527 0
DWIDTH 6 0
BBX 5 6 1 0
BITMAP
50
50
28
78
50
A0
ENDCHAR
STARTCHAR onequarter
ENCODING 188
SWIDTH 865 0
DWIDTH 10 0
BBX 8 8 4 0
BITMAP
C1
42
84
89
93
23
47
82
ENDCHAR
STARTCHAR onehalf
ENCODING 189
SWIDTH 865 0
DWIDTH 10 0
BBX 8 8 4 0
BITMAP
C1
42
84
8F
91
22
44
8E
ENDCHAR
STARTCHAR threequarters
ENCODING 190
SWIDTH 865 0
DWIDTH 10 0
BBX 9 8 5 0
BITMAP
6080
2100
6200
2480
C980
1180
2380
4100
ENDCHAR
STARTCHAR questiondown
ENCODING 191
SWIDTH 464 0
DWIDTH 5 0
BBX 4 8 0 -2
BITMAP
10
00
10
20
40
80
80
70
ENDCHAR
STARTCHAR Agrave
ENCODING 192
SWIDTH 687 0
DWIDTH 8 0
BBX 7 9 0 0
BITMAP
0C
0C
0C
14
34
24
7E
42
82
ENDCHAR
STARTCHAR Aacute
ENCODING 193
SWIDTH 687 0
DWIDTH 8 0
BBX 7 9 0 0
BITMAP
0E
0C
0C
14
34
24
7E
42
82
ENDCHAR
STARTCHAR Acircumflex
ENCODING 194
SWIDTH 687 0
DWIDTH 8 0
BBX 7 9 0 0
BITMAP
1C
0C
0C
14
34
24
7E
42
82
ENDCHAR
STARTCHAR Atilde
ENCODING 195
SWIDTH 687 0
DWIDTH 8 0
BBX 7 9 0 0
BITMAP
1E
0C
0C
14
34
24
7E
42
82
ENDCHAR
STARTCHAR Adieresis
ENCODING 196
SWIDTH 687 0
DWIDTH 8 0
BBX 7 9 0 0
BITMAP
0A
0C
0C
14
34
24
7E
42
82
ENDCHAR
STARTCHAR Aring
ENCODING 197
SWIDTH 687 0
DWIDTH 8 0
BBX 7 10 0 0
BITMAP
0C
0C
0C
0C
14
34
24
7E
42
82
ENDCHAR
STARTCHAR AE
ENCODING 198
SWIDTH 893 0
DWIDTH 10 0
BBX 11 8 0 0
BITMAP
03E0
0600
0A00
1BC0
1200
3E00
4400
87C0
ENDCHAR
STARTCHAR Ccedilla
ENCODING 199
SWIDTH 679 0
DWIDTH 7 0
BBX 7 10 1 -2
BITMAP
1E
60
40
C0
80
80
C4
78
20
60
ENDCHAR
STARTCHAR Egrave
ENCODING 200
SWIDTH 547 0
DWIDTH 6 0
BBX 6 9 1 0
BITMAP
10
7C
40
40
78
40
C0
80
F8
ENDCHAR
STARTCHAR Eacute
ENCODING 201
SWIDTH 547 0
DWIDTH 6 0
BBX 6 9 1 0
BITMAP
08
7C
40
40
78
40
C0
80
F8
ENDCHAR
STARTCHAR Ecircumflex
ENCODING 202
SWIDTH 547 0
DWIDTH 6 0
BBX 6 9 1 0
BITMAP
28
7C
40
40
78
40
C0
80
F8
ENDCHAR
STARTCHAR Edieresis
ENCODING 203
SWIDTH 547 0
DWIDTH 6 0
BBX 6 9 1 0
BITMAP
28
7C
40
40
78
40
C0
80
F8
ENDCHAR
STARTCHAR Igrave
ENCODING 204
SWIDTH 289 0
DWIDTH 3 0
BBX 3 9 1 0
BITMAP
60
20
20
40
40
40
40
80
80
ENDCHAR
STARTCHAR Iacute
ENCODING 205
SWIDTH 289 0
DWIDTH 3 0
BBX 4 9 1 0
BITMAP
70
20
20
40
40
40
40
80
80
ENDCHAR
STARTCHAR Icircumflex
ENCODING 206
SWIDTH 289 0
DWIDTH 3 0
BBX 4 9 1 0
BITMAP
70
20
20
40
40
40
40
80
80
ENDCHAR
STARTCHAR Idieresis
ENCODING 207
SWIDTH 289 0
DWIDTH 3 0
BBX 4 9 1 0
BITMAP
50
20
20
40
40
40
40
80
80
ENDCHAR
STARTCHAR Eth
ENCODING 208
SWIDTH 743 0
DWIDTH 8 0
BBX 8 8 1 0
BITMAP
3E
23
61
F1
41
42
46
FC
ENDCHAR
STARTCHAR Ntilde
ENCODING 209
SWIDTH 741 0
DWIDTH 8 0
BBX 8 9 1 0
BITMAP
1E
21
61
52
52
4A
4A
86
84
ENDCHAR
STARTCHAR Ograve
ENCODING 210
SWIDTH 777 0
DWIDTH 9 0
BBX 8 9 1 0
BITMAP
04
1E
22
43
81
82
82
C4
78
ENDCHAR
STARTCHAR Oacute
ENCODING 211
SWIDTH 777 0
DWIDTH 9 0
BBX 8 9 1 0
BITMAP
04
1E
22
43
81
82
82
C4
78
ENDCHAR
STARTCHAR Ocircumflex
ENCODING 212
SWIDTH 777 0
DWIDTH 9 0
BBX 8 9 1 0
BITMAP
14
1E
22
43
81
82
82
C4
78
ENDCHAR
STARTCHAR Otilde
ENCODING 213
SWIDTH 777 0
DWIDTH 9 0
BBX 8 9 1 0
BITMAP
1E
1E
22
43
81
82
82
C4
78
ENDCHAR
STARTCHAR Odieresis
ENCODING 214
SWIDTH 777 0
DWIDTH 9 0
BBX 8 9 1 0
BITMAP
14
1E
22
43
81
82
82
C4
78
ENDCHAR
STARTCHAR multiply
ENCODING 215
SWIDTH 633 0
DWIDTH 7 0
BBX 7 7 1 0
BITMAP
42
24
28
10
28
4C
84
ENDCHAR
STARTCHAR Oslash
ENCODING 216
SWIDTH 777 0
DWIDTH 9 0
BBX 9 8 1 0
BITMAP
1F80
2300
4700
8D00
9A00
B200
E400
F800
ENDCHAR
STARTCHAR Ugrave
ENCODING 217
SWIDTH 693 0
DWIDTH 8 0
BBX 7 9 1 0
BITMAP
18
42
42
44
C4
84
84
88
78
ENDCHAR
STARTCHAR Uacute
ENCODING 218
SWIDTH 693 0
DWIDTH 8 0
BBX 7 9 1 0
BITMAP
1C
42
42
44
C4
84
84
88
78
ENDCHAR
STARTCHAR Ucircumflex
ENCODING 219
SWIDTH 693 0
DWIDTH 8 0
BBX 7 9 1 0
BITMAP
1C
42
42
44
C4
84
84
88
78
ENDCHAR
STARTCHAR Udieresis
ENCODING 220
SWIDTH 693 0
DWIDTH 8 0
BBX 7 9 1 0
BITMAP
14
42
42
44
C4
84
84
88
78
ENDCHAR
STARTCHAR Yacute
ENCODING 221
SWIDTH 608 0
DWIDTH 7 0
BBX 6 9 2 0
BITMAP
38
8C
48
50
70
20
60
40
40
ENDCHAR
STARTCHAR Thorn
ENCODING 222
SWIDTH 575 0
DWIDTH 6 0
BBX 6 8 1 0
BITMAP
20
60
7C
44
4C
70
80
80
ENDCHAR
STARTCHAR germandbls
ENCODING 223
SWIDTH 595 0
DWIDTH 7 0
BBX 6 11 1 -2
BITMAP
38
24
28
70
50
48
44
44
D8
80
80
ENDCHAR
STARTCHAR agrave
ENCODING 224
SWIDTH 608 0
DWIDTH 7 0
BBX 6 7 1 0
BITMAP
08
3C
64
4C
98
B8
E8
ENDCHAR
STARTCHAR aacute
ENCODING 225
SWIDTH 608 0
DWIDTH 7 0
BBX 6 7 1 0
BITMAP
08
3C
64
4C
98
B8
E8
ENDCHAR
STARTCHAR acircumflex
ENCODING 226
SWIDTH 608 0
DWIDTH 7 0
BBX 6 7 1 0
BITMAP
28
3C
64
4C
98
B8
E8
ENDCHAR
STARTCHAR atilde
ENCODING 227
SWIDTH 608 0
DWIDTH 7 0
BBX 6 7 1 0
BITMAP
3C
3C
64
4C
98
B8
E8
ENDCHAR
STARTCHAR adieresis
ENCODING 228
SWIDTH 608 0
DWIDTH 7 0
BBX 6 7 1 0
BITMAP
14
3C
64
4C
98
B8
E8
ENDCHAR
STARTCHAR aring
ENCODING 229
SWIDTH 608 0
DWIDTH 7 0
BBX 6 8 1 0
BITMAP
18
18
3C
64
4C
98
B8
E8
ENDCHAR
STARTCHAR ae
ENCODING 230
SWIDTH 893 0
DWIDTH 10 0
BBX 9 6 1 0
BITMAP
3F80
6480
C900
9E00
B880
E700
ENDCHAR
STARTCHAR ccedilla
ENCODING 231
SWIDTH 503 0
DWIDTH 6 0
BBX 5 8 1 -2
BITMAP
38
40
80
80
90
70
20
60
ENDCHAR
STARTCHAR egrave
ENCODING 232
SWIDTH 529 0
DWIDTH 6 0
BBX 5 7 1 0
BITMAP
10
38
48
90
E0
88
70
ENDCHAR
STARTCHAR eacute
ENCODING 233
SWIDTH 529 0
DWIDTH 6 0
BBX 6 7 1 0
BITMAP
0C
38
48
90
E0
88
70
ENDCHAR
STARTCHAR ecircumflex
ENCODING 234
SWIDTH 529 0
DWIDTH 6 0
BBX 5 7 1 0
BITMAP
28
38
48
90
E0
88
70
ENDCHAR
STARTCHAR edieresis
ENCODING 235
SWIDTH 529 0
DWIDTH 6 0
BBX 5 7 1 0
BITMAP
28
38
48
90
E0
88
70
ENDCHAR
STARTCHAR igrave
ENCODING 236
SWIDTH 289 0
DWIDTH 3 0
BBX 3 7 1 0
BITMAP
60
40
40
40
80
80
80
ENDCHAR
STARTCHAR iacute
ENCODING 237
SWIDTH 289 0
DWIDTH 3 0
BBX 4 7 1 0
BITMAP
70
40
40
40
80
80
80
ENDCHAR
STARTCHAR icircumflex
ENCODING 238
SWIDTH 289 0
DWIDTH 3 0
BBX 3 7 1 0
BITMAP
E0
40
40
40
80
80
80
ENDCHAR
STARTCHAR idieresis
ENCODING 239
SWIDTH 289 0
DWIDTH 3 0
BBX 4 7 1 0
BITMAP
50
40
40
40
80
80
80
ENDCHAR
STARTCHAR eth
ENCODING 240
SWIDTH 556 0
DWIDTH 6 0
BBX 5 8 1 0
BITMAP
78
38
38
48
88
88
98
70
ENDCHAR
STARTCHAR ntilde
ENCODING 241
SWIDTH 620 0
DWIDTH 7 0
BBX 6 7 1 0
BITMAP
3C
5C
74
64
44
88
88
ENDCHAR
STARTCHAR ograve
ENCODING 242
SWIDTH 566 0
DWIDTH 6 0
BBX 5 7 1 0
BITMAP
08
38
48
88
88
98
70
ENDCHAR
STARTCHAR oacute
ENCODING 243
SWIDTH 566 0
DWIDTH 6 0
BBX 6 7 1 0
BITMAP
0C
38
48
88
88
98
70
ENDCHAR
STARTCHAR ocircumflex
ENCODING 244
SWIDTH 566 0
DWIDTH 6 0
BBX 5 7 1 0
BITMAP
28
38
48
88
88
98
70
ENDCHAR
STARTCHAR otilde
ENCODING 245
SWIDTH 566 0
DWIDTH 6 0
BBX 6 7 1 0
BITMAP
3C
38
48
88
88
98
70
ENDCHAR
STARTCHAR odieresis
ENCODING 246
SWIDTH 566 0
DWIDTH 6 0
BBX 5 7 1 0
BITMAP
28
38
48
88
88
98
70
ENDCHAR
STARTCHAR divide
ENCODING 247
SWIDTH 633 0
DWIDTH 7 0
BBX 7 6 1 0
BITMAP
18
00
00
FE
00
30
ENDCHAR
STARTCHAR oslash
ENCODING 248
SWIDTH 566 0
DWIDTH 6 0
BBX 6 6 1 0
BITMAP
3C
48
98
A8
D8
F0
ENDCHAR
STARTCHAR ugrave
ENCODING 249
SWIDTH 620 0
DWIDTH 7 0
BBX 6 7 1 0
BITMAP
18
44
44
88
98
B8
E8
ENDCHAR
STARTCHAR uacute
ENCODING 250
SWIDTH 620 0
DWIDTH 7 0
BBX 6 7 1 0
BITMAP
1C
44
44
88
98
B8
E8
ENDCHAR
STARTCHAR ucircumflex
ENCODING 251
SWIDTH 620 0
DWIDTH 7 0
BBX 6 7 1 0
BITMAP
38
44
44
88
98
B8
E8
ENDCHAR
STARTCHAR udieresis
ENCODING 252
SWIDTH 620 0
DWIDTH 7 0
BBX 6 7 1 0
BITMAP
28
44
44
88
98
B8
E8
ENDCHAR
STARTCHAR yacute
ENCODING 253
SWIDTH 548 0
DWIDTH 6 0
BBX 6 9 1 -2
BITMAP
1C
C4
48
58
50
60
60
40
80
ENDCHAR
STARTCHAR thorn
ENCODING 254
SWIDTH 608 0
DWIDTH 7 0
BBX 6 10 1 -2
BITMAP
20
20
5C
74
64
48
48
F0
80
80
ENDCHAR
STARTCHAR ydieresis
ENCODING 255
SWIDTH 548 0
DWIDTH 6 0
BBX 6 9 1 -2
BITMAP
28
C4
48
58
50
60
60
40
80
ENDCHAR
STARTCHAR Amacron
ENCODING 256
SWIDTH 687 0
DWIDTH 8 0
BBX 7 10 0 0
BITMAP
1C
00
0C
0C
14
34
24
7E
42
82
ENDCHAR
STARTCHAR amacron
ENCODING 257
SWIDTH 608 0
DWIDTH 7 0
BBX 6 8 1 0
BITMAP
38
00
3C
64
4C
98
B8
E8
ENDCHAR
STARTCHAR Abreve
ENCODING 258
SWIDTH 687 0
DWIDTH 8 0
BBX 7 10 0 0
BITMAP
3C
00
0C
0C
14
34
24
7E
42
82
ENDCHAR
STARTCHAR abreve
ENCODING 259
SWIDTH 608 0
DWIDTH 7 0
BBX 6 8 1 0
BITMAP
78
00
3C
64
4C
98
B8
E8
ENDCHAR
STARTCHAR Aogonek
ENCODING 260
SWIDTH 687 0
DWIDTH 8 0
BBX 7 10 0 -2
BITMAP
0C
0C
14
34
24
7E
42
82
00
18
ENDCHAR
STARTCHAR aogonek
ENCODING 261
SWIDTH 608 0
DWIDTH 7 0
BBX 6 8 1 -2
BITMAP
3C
64
4C
98
B8
E8
00
30
ENDCHAR
STARTCHAR Cacute
ENCODING 262
SWIDTH 679 0
DWIDTH 7 0
BBX 7 10 1 0
BITMAP
38
00
1E
60
40
C0
80
80
C4
78
ENDCHAR
STARTCHAR cacute
ENCODING 263
SWIDTH 503 0
DWIDTH 6 0
BBX 5 8 1 0
BITMAP
70
00
38
40
80
80
90
70
ENDCHAR
STARTCHAR Ccircumflex
ENCODING 264
SWIDTH 679 0
DWIDTH 7 0
BBX 7 10 1 0
BITMAP
38
00
1E
60
40
C0
80
80
C4
78
ENDCHAR
STARTCHAR ccircumflex
ENCODING 265
SWIDTH 503 0
DWIDTH 6 0
BBX 5 8 1 0
BITMAP
70
00
38
40
80
80
90
70
ENDCHAR
STARTCHAR Cdotaccent
ENCODING 266
SWIDTH 679 0
DWIDTH 7 0
BBX 7 10 1 0
BITMAP
10
00
1E
60
40
C0
80
80
C4
78
ENDCHAR
STARTCHAR cdotaccent
ENCODING 267
SWIDTH 503 0
DWIDTH 6 0
BBX 5 8 1 0
BITMAP
20
00
38
40
80
80
90
70
ENDCHAR
STARTCHAR Ccaron
ENCODING 268
SWIDTH 679 0
DWIDTH 7 0
BBX 7 10 1 0
BITMAP
38
00
1E
60
40
C0
80
80
C4
78
ENDCHAR
STARTCHAR ccaron
ENCODING 269
SWIDTH 503 0
DWIDTH 6 0
BBX 5 8 1 0
BITMAP
70
00
38
40
80
80
90
70
ENDCHAR
STARTCHAR Dcaron
ENCODING 270
SWIDTH 743 0
DWIDTH 8 0
BBX 8 10 1 0
BITMAP
1C
00
3E
63
41
41
41
42
86
F8
ENDCHAR
STARTCHAR dcaron
ENCODING 271
SWIDTH 795 0
DWIDTH 9 0
BBX 10 8 1 0
BITMAP
0440
04C0
3C80
4800
4800
9800
B800
F800
ENDCHAR
STARTCHAR Dcroat
ENCODING 272
SWIDTH 743 0
DWIDTH 8 0
BBX 8 8 1 0
BITMAP
3E
23
61
F1
41
42
46
FC
ENDCHAR
STARTCHAR dcroat
ENCODING 273
SWIDTH 608 0
DWIDTH 7 0
BBX 6 8 1 0
BITMAP
04
1C
3C
48
48
98
B8
F8
ENDCHAR
STARTCHAR Emacron
ENCODING 274
SWIDTH 547 0
DWIDTH 6 0
BBX 6 10 1 0
BITMAP
70
00
7C
40
40
78
40
C0
80
F8
ENDCHAR
STARTCHAR emacron
ENCODING 275
SWIDTH 529 0
DWIDTH 6 0
BBX 5 8 1 0
BITMAP
38
00
38
48
90
E0
88
70
ENDCHAR
STARTCHAR Ebreve
ENCODING 276
SWIDTH 547 0
DWIDTH 6 0
BBX 6 10 1 0
BITMAP
78
00
7C
40
40
78
40
C0
80
F8
ENDCHAR
STARTCHAR ebreve
ENCODING 277
SWIDTH 529 0
DWIDTH 6 0
BBX 5 8 1 0
BITMAP
78
00
38
48
90
E0
88
70
ENDCHAR
STARTCHAR Edotaccent
ENCODING 278
SWIDTH 547 0
DWIDTH 6 0
BBX 6 10 1 0
BITMAP
20
00
7C
40
40
78
40
C0
80
F8
ENDCHAR
STARTCHAR edotaccent
ENCODING 279
SWIDTH 529 0
DWIDTH 6 0
BBX 5 8 1 0
BITMAP
10
00
38
48
90
E0
88
70
ENDCHAR
STARTCHAR Eogonek
ENCODING 280
SWIDTH 547 0
DWIDTH 6 0
BBX 6 10 1 -2
BITMAP
7C
40
40
78
40
C0
80
F8
00
60
ENDCHAR
STARTCHAR eogonek
ENCODING 281
SWIDTH 529 0
DWIDTH 6 0
BBX 5 8 1 -2
BITMAP
38
48
90
E0
88
70
00
30
ENDCHAR
STARTCHAR Ecaron
ENCODING 282
SWIDTH 547 0
DWIDTH 6 0
BBX 6 10 1 0
BITMAP
70
00
7C
40
40
78
40
C0
80
F8
ENDCHAR
STARTCHAR ecaron
ENCODING 283
SWIDTH 529 0
DWIDTH 6 0
BBX 5 8 1 0
BITMAP
38
00
38
48
90
E0
88
70
ENDCHAR
STARTCHAR Gcircumflex
ENCODING 284
SWIDTH 702 0
DWIDTH 8 0
BBX 7 10 1 0
BITMAP
38
00
1E
60
40
80
84
84
C4
78
ENDCHAR
STARTCHAR gcircumflex
ENCODING 285
SWIDTH 608 0
DWIDTH 7 0
BBX 6 10 1 -2
BITMAP
38
00
1C
24
4C
C8
58
68
88
F0
ENDCHAR
STARTCHAR Gbreve
ENCODING 286
SWIDTH 702 0
DWIDTH 8 0
BBX 7 10 1 0
BITMAP
3C
00
1E
60
40
80
84
84
C4
78
ENDCHAR
STARTCHAR gbreve
ENCODING 287
SWIDTH 608 0
DWIDTH 7 0
BBX 6 10 1 -2
BITMAP
3C
00
1C
24
4C
C8
58
68
88
F0
ENDCHAR
STARTCHAR Gdotaccent
ENCODING 288
SWIDTH 702 0
DWIDTH 8 0
BBX 7 10 1 0
BITMAP
10
00
1E
60
40
80
84
84
C4
78
ENDCHAR
STARTCHAR gdotaccent
ENCODING 289
SWIDTH 608 0
DWIDTH 7 0
BBX 6 10 1 -2
BITMAP
10
00
1C
24
4C
C8
58
68
88
F0
ENDCHAR
STARTCHAR Gcommaaccent
ENCODING 290
SWIDTH 702 0
DWIDTH 8 0
BBX 7 13 1 -5
BITMAP
1E
60
40
80
84
84
C4
78
00
10
30
10
20
ENDCHAR
STARTCHAR gcommaaccent
ENCODING 291
SWIDTH 608 0
DWIDTH 7 0
BBX 6 12 1 -2
BITMAP
08
10
18
00
1C
24
4C
C8
58
68
88
F0
ENDCHAR
STARTCHAR Hcircumflex
ENCODING 292
SWIDTH 735 0
DWIDTH 8 0
BBX 8 10 1 0
BITMAP
1C
00
21
43
42
7E
42
42
86
84
ENDCHAR
STARTCHAR hcircumflex
ENCODING 293
SWIDTH 620 0
DWIDTH 7 0
BBX 6 10 1 0
BITMAP
38
00
20
60
5C
74
64
44
88
88
ENDCHAR
STARTCHAR Hbar
ENCODING 294
SWIDTH 735 0
DWIDTH 8 0
BBX 8 8 1 0
BITMAP
21
FF
42
7E
42
42
86
84
ENDCHAR
STARTCHAR hbar
ENCODING 295
SWIDTH 620 0
DWIDTH 7 0
BBX 6 8 1 0
BITMAP
20
70
5C
74
64
44
88
88
ENDCHAR
STARTCHAR Itilde
ENCODING 296
SWIDTH 289 0
DWIDTH 3 0
BBX 4 10 1 0
BITMAP
F0
00
20
20
40
40
40
40
80
80
ENDCHAR
STARTCHAR itilde
ENCODING 297
SWIDTH 289 0
DWIDTH 3 0
BBX 4 8 0 0
BITMAP
F0
00
20
20
20
40
40
40
ENDCHAR
STARTCHAR Imacron
ENCODING 298
SWIDTH 289 0
DWIDTH 3 0
BBX 3 10 1 0
BITMAP
E0
00
20
20
40
40
40
40
80
80
ENDCHAR
STARTCHAR imacron
ENCODING 299
SWIDTH 289 0
DWIDTH 3 0
BBX 3 8 1 0
BITMAP
E0
00
40
40
40
80
80
80
ENDCHAR
STARTCHAR Ibreve
ENCODING 300
SWIDTH 289 0
DWIDTH 3 0
BBX 4 10 1 0
BITMAP
F0
00
20
20
40
40
40
40
80
80
ENDCHAR
STARTCHAR ibreve
ENCODING 301
SWIDTH 289 0
DWIDTH 3 0
BBX 4 8 0 0
BITMAP
F0
00
20
20
20
40
40
40
ENDCHAR
STARTCHAR Iogonek
ENCODING 302
SWIDTH 289 0
DWIDTH 3 0
BBX 3 10 1 -2
BITMAP
20
20
40
40
40
40
80
80
00
C0
ENDCHAR
STARTCHAR iogonek
ENCODING 303
SWIDTH 289 0
DWIDTH 3 0
BBX 3 10 1 -2
BITMAP
20
00
60
40
40
40
80
80
00
C0
ENDCHAR
STARTCHAR Idotaccent
ENCODING 304
SWIDTH 289 0
DWIDTH 3 0
BBX 3 10 1 0
BITMAP
40
00
20
20
40
40
40
40
80
80
ENDCHAR
STARTCHAR dotlessi
ENCODING 305
SWIDTH 289 0
DWIDTH 3 0
BBX 2 6 1 0
BITMAP
40
40
40
80
80
80
ENDCHAR
STARTCHAR IJ
ENCODING 306
SWIDTH 683 0
DWIDTH 7 0
BBX 7 10 1 -2
BITMAP
22
22
46
44
44
44
84
84
08
38
ENDCHAR
STARTCHAR ij
ENCODING 307
SWIDTH 600 0
DWIDTH 7 0
BBX 7 10 1 -2
BITMAP
22
00
66
44
44
44
84
84
08
30
ENDCHAR
STARTCHAR Jcircumflex
ENCODING 308
SWIDTH 408 0
DWIDTH 4 0
BBX 5 12 0 -2
BITMAP
38
00
08
08
18
10
10
10
10
10
20
E0
ENDCHAR
STARTCHAR jcircumflex
ENCODING 309
SWIDTH 325 0
DWIDTH 4 0
BBX 5 10 0 -2
BITMAP
38
00
18
10
10
10
10
10
20
C0
ENDCHAR
STARTCHAR Kcommaaccent
ENCODING 310
SWIDTH 635 0
DWIDTH 7 0
BBX 7 13 1 -5
BITMAP
26
4C
58
70
70
50
88
8C
00
10
30
10
20
ENDCHAR
STARTCHAR kcommaaccent
ENCODING 311
SWIDTH 572 0
DWIDTH 6 0
BBX 6 13 1 -5
BITMAP
20
40
4C
50
60
70
90
88
00
20
60
20
40
ENDCHAR
STARTCHAR kgreenlandic
ENCODING 312
SWIDTH 572 0
DWIDTH 6 0
BBX 6 6 1 0
BITMAP
4C
50
60
70
90
88
ENDCHAR
STARTCHAR Lacute
ENCODING 313
SWIDTH 545 0
DWIDTH 6 0
BBX 5 10 1 0
BITMAP
70
00
60
40
40
40
40
C0
80
F8
ENDCHAR
STARTCHAR lacute
ENCODING 314
SWIDTH 289 0
DWIDTH 3 0
BBX 3 10 1 0
BITMAP
E0
00
20
20
40
40
40
40
80
80
ENDCHAR
STARTCHAR Lcommaaccent
ENCODING 315
SWIDTH 545 0
DWIDTH 6 0
BBX 5 13 1 -5
BITMAP
60
40
40
40
40
C0
80
F8
00
20
60
20
40
ENDCHAR
STARTCHAR lcommaaccent
ENCODING 316
SWIDTH 289 0
DWIDTH 3 0
BBX 3 13 1 -5
BITMAP
20
20
40
40
40
40
80
80
00
40
C0
40
80
ENDCHAR
STARTCHAR Lcaron
ENCODING 317
SWIDTH 735 0
DWIDTH 8 0
BBX 9 8 1 0
BITMAP
6080
4180
4100
4000
4000
C000
8000
F800
ENDCHAR
STARTCHAR lcaron
ENCODING 318
SWIDTH 492 0
DWIDTH 5 0
BBX 6 8 1 0
BITMAP
24
2C
48
40
40
40
80
80
ENDCHAR
STARTCHAR Ldot
ENCODING 319
SWIDTH 834 0
DWIDTH 13 0
BBX 10 8 1 0
BITMAP
6000
4000
4000
4000
40C0
C000
8000
F800
ENDCHAR
STARTCHAR ldot
ENCODING 320
SWIDTH 591 0
DWIDTH 10 0
BBX 7 8 1 0
BITMAP
20
20
40
40
46
40
80
80
ENDCHAR
STARTCHAR Lslash
ENCODING 321
SWIDTH 545 0
DWIDTH 6 0
BBX 6 8 0 0
BITMAP
30
20
30
20
E0
40
40
7C
ENDCHAR
STARTCHAR lslash
ENCODING 322
SWIDTH 289 0
DWIDTH 3 0
BBX 4 8 0 0
BITMAP
20
20
30
20
C0
40
40
40
ENDCHAR
STARTCHAR Nacute
ENCODING 323
SWIDTH 741 0
DWIDTH 8 0
BBX 8 10 1 0
BITMAP
1C
00
21
61
52
52
4A
4A
86
84
ENDCHAR
STARTCHAR nacute
ENCODING 324
SWIDTH 620 0
DWIDTH 7 0
BBX 6 8 1 0
BITMAP
38
00
5C
74
64
44
88
88
ENDCHAR
STARTCHAR Ncommaaccent
ENCODING 325
SWIDTH 741 0
DWIDTH 8 0
BBX 8 13 1 -5
BITMAP
21
61
52
52
4A
4A
86
84
00
08
18
08
10
ENDCHAR
STARTCHAR ncommaaccent
ENCODING 326
SWIDTH 620 0
DWIDTH 7 0
BBX 6 11 1 -5
BITMAP
5C
74
64
44
88
88
00
10
30
10
20
ENDCHAR
STARTCHAR Ncaron
ENCODING 327
SWIDTH 741 0
DWIDTH 8 0
BBX 8 10 1 0
BITMAP
1C
00
21
61
52
52
4A
4A
86
84
ENDCHAR
STARTCHAR ncaron
ENCODING 328
SWIDTH 620 0
DWIDTH 7 0
BBX 6 8 1 0
BITMAP
38
00
5C
74
64
44
88
88
ENDCHAR
STARTCHAR napostrophe
ENCODING 329
SWIDTH 826 0
DWIDTH 9 0
BBX 7 8 2 0
BITMAP
40
C0
AE
3A
32
22
44
44
ENDCHAR
STARTCHAR Eng
ENCODING 330
SWIDTH 741 0
DWIDTH 8 0
BBX 8 10 1 -2
BITMAP
21
61
52
52
4A
4A
86
86
04
18
ENDCHAR
STARTCHAR eng
ENCODING 331
SWIDTH 620 0
DWIDTH 7 0
BBX 6 8 1 -2
BITMAP
5C
74
64
44
84
84
08
30
ENDCHAR
STARTCHAR Omacron
ENCODING 332
SWIDTH 777 0
DWIDTH 9 0
BBX 8 10 1 0
BITMAP
1C
00
1E
22
43
81
82
82
C4
78
ENDCHAR
STARTCHAR omacron
ENCODING 333
SWIDTH 566 0
DWIDTH 6 0
BBX 5 8 1 0
BITMAP
38
00
38
48
88
88
98
70
ENDCHAR
STARTCHAR Obreve
ENCODING 334
SWIDTH 777 0
DWIDTH 9 0
BBX 8 10 1 0
BITMAP
1E
00
1E
22
43
81
82
82
C4
78
ENDCHAR
STARTCHAR obreve
ENCODING 335
SWIDTH 566 0
DWIDTH 6 0
BBX 5 8 1 0
BITMAP
78
00
38
48
88
88
98
70
ENDCHAR
STARTCHAR Ohungarumlaut
ENCODING 336
SWIDTH 777 0
DWIDTH 9 0
BBX 8 10 1 0
BITMAP
1E
00
1E
22
43
81
82
82
C4
78
ENDCHAR
STARTCHAR ohungarumlaut
ENCODING 337
SWIDTH 566 0
DWIDTH 6 0
BBX 5 8 1 0
BITMAP
78
00
38
48
88
88
98
70
ENDCHAR
STARTCHAR OE
ENCODING 338
SWIDTH 1005 0
DWIDTH 11 0
BBX 11 8 1 0
BITMAP
1FE0
2200
4200
83C0
8200
8600
C400
7FC0
ENDCHAR
STARTCHAR oe
ENCODING 339
SWIDTH 899 0
DWIDTH 10 0
BBX 9 6 1 0
BITMAP
3B80
4C80
8900
8E00
9880
7700
ENDCHAR
STARTCHAR Racute
ENCODING 340
SWIDTH 632 0
DWIDTH 7 0
BBX 6 10 1 0
BITMAP
38
00
7C
44
44
48
70
D0
88
8C
ENDCHAR
STARTCHAR racute
ENCODING 341
SWIDTH 478 0
DWIDTH 5 0
BBX 5 8 1 0
BITMAP
70
00
58
60
60
C0
80
80
ENDCHAR
STARTCHAR Rcommaaccent
ENCODING 342
SWIDTH 632 0
DWIDTH 7 0
BBX 6 13 1 -5
BITMAP
7C
44
44
48
70
D0
88
8C
00
10
30
10
20
ENDCHAR
STARTCHAR rcommaaccent
ENCODING 343
SWIDTH 478 0
DWIDTH 5 0
BBX 5 11 1 -5
BITMAP
58
60
60
C0
80
80
00
40
C0
40
80
ENDCHAR
STARTCHAR Rcaron
ENCODING 344
SWIDTH 632 0
DWIDTH 7 0
BBX 6 10 1 0
BITMAP
38
00
7C
44
44
48
70
D0
88
8C
ENDCHAR
STARTCHAR rcaron
ENCODING 345
SWIDTH 478 0
DWIDTH 5 0
BBX 5 8 1 0
BITMAP
70
00
58
60
60
C0
80
80
ENDCHAR
STARTCHAR Sacute
ENCODING 346
SWIDTH 553 0
DWIDTH 6 0
BBX 6 10 1 0
BITMAP
38
00
3C
60
60
30
18
08
88
F0
ENDCHAR
STARTCHAR sacute
ENCODING 347
SWIDTH 489 0
DWIDTH 5 0
BBX 5 8 1 0
BITMAP
70
00
38
40
60
30
90
F0
ENDCHAR
STARTCHAR Scircumflex
ENCODING 348
SWIDTH 553 0
DWIDTH 6 0
BBX 6 10 1 0
BITMAP
38
00
3C
60
60
30
18
08
88
F0
ENDCHAR
STARTCHAR scircumflex
ENCODING 349
SWIDTH 489 0
DWIDTH 5 0
BBX 5 8 1 0
BITMAP
70
00
38
40
60
30
90
F0
ENDCHAR
STARTCHAR Scedilla
ENCODING 350
SWIDTH 553 0
DWIDTH 6 0
BBX 6 10 1 -2
BITMAP
3C
60
60
30
18
08
88
F0
20
60
ENDCHAR
STARTCHAR scedilla
ENCODING 351
SWIDTH 489 0
DWIDTH 5 0
BBX 5 8 1 -2
BITMAP
38
40
60
30
90
F0
20
60
ENDCHAR
STARTCHAR Scaron
ENCODING 352
SWIDTH 553 0
DWIDTH 6 0
BBX 6 9 1 0
BITMAP
18
3C
60
60
30
18
08
88
F0
ENDCHAR
STARTCHAR scaron
ENCODING 353
SWIDTH 489 0
DWIDTH 5 0
BBX 5 7 1 0
BITMAP
30
38
40
60
30
90
F0
ENDCHAR
STARTCHAR Tcommaaccent
ENCODING 354
SWIDTH 623 0
DWIDTH 7 0
BBX 7 10 1 -2
BITMAP
FE
10
10
20
20
20
20
60
20
60
ENDCHAR
STARTCHAR tcommaaccent
ENCODING 355
SWIDTH 383 0
DWIDTH 4 0
BBX 4 9 1 -2
BITMAP
60
F0
40
40
80
80
60
40
C0
ENDCHAR
STARTCHAR Tcaron
ENCODING 356
SWIDTH 623 0
DWIDTH 7 0
BBX 7 10 1 0
BITMAP
38
00
FE
10
10
20
20
20
20
60
ENDCHAR
STARTCHAR tcaron
ENCODING 357
SWIDTH 581 0
DWIDTH 6 0
BBX 7 8 1 0
BITMAP
02
66
F4
40
40
80
80
60
ENDCHAR
STARTCHAR Tbar
ENCODING 358
SWIDTH 623 0
DWIDTH 7 0
BBX 7 8 1 0
BITMAP
FE
10
10
38
20
20
20
60
ENDCHAR
STARTCHAR tbar
ENCODING 359
SWIDTH 383 0
DWIDTH 4 0
BBX 4 7 1 0
BITMAP
60
F0
40
70
80
80
60
ENDCHAR
STARTCHAR Utilde
ENCODING 360
SWIDTH 693 0
DWIDTH 8 0
BBX 7 10 1 0
BITMAP
3C
00
42
42
44
C4
84
84
88
78
ENDCHAR
STARTCHAR utilde
ENCODING 361
SWIDTH 620 0
DWIDTH 7 0
BBX 6 8 1 0
BITMAP
78
00
44
44
88
98
B8
E8
ENDCHAR
STARTCHAR Umacron
ENCODING 362
SWIDTH 693 0
DWIDTH 8 0
BBX 7 10 1 0
BITMAP
38
00
42
42
44
C4
84
84
88
78
ENDCHAR
STARTCHAR umacron
ENCODING 363
SWIDTH 620 0
DWIDTH 7 0
BBX 6 8 1 0
BITMAP
38
00
44
44
88
98
B8
E8
ENDCHAR
STARTCHAR Ubreve
ENCODING 364
SWIDTH 693 0
DWIDTH 8 0
BBX 7 10 1 0
BITMAP
3C
00
42
42
44
C4
84
84
88
78
ENDCHAR
STARTCHAR ubreve
ENCODING 365
SWIDTH 620 0
DWIDTH 7 0
BBX 6 8 1 0
BITMAP
78
00
44
44
88
98
B8
E8
ENDCHAR
STARTCHAR Uring
ENCODING 366
SWIDTH 693 0
DWIDTH 8 0
BBX 7 11 1 0
BITMAP
18
18
00
42
42
44
C4
84
84
88
78
ENDCHAR
STARTCHAR uring
ENCODING 367
SWIDTH 620 0
DWIDTH 7 0
BBX 6 9 1 0
BITMAP
30
30
00
44
44
88
98
B8
E8
ENDCHAR
STARTCHAR Uhungarumlaut
ENCODING 368
SWIDTH 693 0
DWIDTH 8 0
BBX 7 10 1 0
BITMAP
3C
00
42
42
44
C4
84
84
88
78
ENDCHAR
STARTCHAR uhungarumlaut
ENCODING 369
SWIDTH 620 0
DWIDTH 7 0
BBX 6 8 1 0
BITMAP
78
00
44
44
88
98
B8
E8
ENDCHAR
STARTCHAR Uogonek
ENCODING 370
SWIDTH 693 0
DWIDTH 8 0
BBX 7 10 1 -2
BITMAP
42
42
44
C4
84
84
88
78
00
30
ENDCHAR
STARTCHAR uogonek
ENCODING 371
SWIDTH 620 0
DWIDTH 7 0
BBX 6 8 1 -2
BITMAP
44
44
88
98
B8
E8
00
30
ENDCHAR
STARTCHAR Wcircumflex
ENCODING 372
SWIDTH 886 0
DWIDTH 10 0
BBX 9 10 2 0
BITMAP
1C00
0000
8880
8880
9900
9900
AA00
AA00
CC00
CC00
ENDCHAR
STARTCHAR wcircumflex
ENCODING 373
SWIDTH 795 0
DWIDTH 9 0
BBX 8 8 1 0
BITMAP
38
00
99
9A
AA
AC
CC
C8
ENDCHAR
STARTCHAR Ycircumflex
ENCODING 374
SWIDTH 608 0
DWIDTH 7 0
BBX 6 10 2 0
BITMAP
38
00
8C
48
50
70
20
60
40
40
ENDCHAR
STARTCHAR ycircumflex
ENCODING 375
SWIDTH 548 0
DWIDTH 6 0
BBX 6 10 1 -2
BITMAP
70
00
C4
48
58
50
60
60
40
80
ENDCHAR
STARTCHAR Ydieresis
ENCODING 376
SWIDTH 608 0
DWIDTH 7 0
BBX 6 9 2 0
BITMAP
28
8C
48
50
70
20
60
40
40
ENDCHAR
STARTCHAR Zacute
ENCODING 377
SWIDTH 578 0
DWIDTH 6 0
BBX 7 10 0 0
BITMAP
1C
00
3E
04
08
18
30
60
40
FC
ENDCHAR
STARTCHAR zacute
ENCODING 378
SWIDTH 536 0
DWIDTH 6 0
BBX 6 8 0 0
BITMAP
38
00
7C
08
10
20
40
F8
ENDCHAR
STARTCHAR Zdotaccent
ENCODING 379
SWIDTH 578 0
DWIDTH 6 0
BBX 7 10 0 0
BITMAP
08
00
3E
04
08
18
30
60
40
FC
ENDCHAR
STARTCHAR zdotaccent
ENCODING 380
SWIDTH 536 0
DWIDTH 6 0
BBX 6 8 0 0
BITMAP
10
00
7C
08
10
20
40
F8
ENDCHAR
STARTCHAR Zcaron
ENCODING 381
SWIDTH 578 0
DWIDTH 6 0
BBX 7 9 0 0
BITMAP
18
3E
04
08
18
30
60
40
FC
ENDCHAR
STARTCHAR zcaron
ENCODING 382
SWIDTH 536 0
DWIDTH 6 0
BBX 6 7 0 0
BITMAP
18
7C
08
10
20
40
F8
ENDCHAR
STARTCHAR uni0186
ENCODING 390
SWIDTH 679 0
DWIDTH 7 0
BBX 7 8 1 0
BITMAP
3C
46
02
02
06
04
0C
F0
ENDCHAR
STARTCHAR uni0189
ENCODING 393
SWIDTH 743 0
DWIDTH 8 0
BBX 8 8 1 0
BITMAP
3E
23
61
F1
41
42
46
FC
ENDCHAR
STARTCHAR uni018E
ENCODING 398
SWIDTH 547 0
DWIDTH 6 0
BBX 6 8 1 0
BITMAP
7C
04
0C
08
78
08
08
F8
ENDCHAR
STARTCHAR florin
ENCODING 402
SWIDTH 633 0
DWIDTH 7 0
BBX 5 10 2 -2
BITMAP
38
20
40
40
E0
40
40
40
80
80
ENDCHAR
STARTCHAR uni0197
ENCODING 407
SWIDTH 289 0
DWIDTH 3 0
BBX 3 8 1 0
BITMAP
20
20
40
E0
40
40
80
80
ENDCHAR
STARTCHAR uni019A
ENCODING 410
SWIDTH 289 0
DWIDTH 3 0
BBX 3 8 1 0
BITMAP
20
20
40
E0
40
40
80
80
ENDCHAR
STARTCHAR uni019D
ENCODING 413
SWIDTH 741 0
DWIDTH 8 0
BBX 10 10 -1 -2
BITMAP
0840
1840
1480
1480
1280
1280
1180
1100
2000
C000
ENDCHAR
STARTCHAR uni019F
ENCODING 415
SWIDTH 777 0
DWIDTH 9 0
BBX 8 8 1 0
BITMAP
1E
22
43
FF
82
82
C4
78
ENDCHAR
STARTCHAR Ohorn
ENCODING 416
SWIDTH 777 0
DWIDTH 9 0
BBX 10 8 1 0
BITMAP
1E40
22C0
4380
8100
8200
8200
C400
7800
ENDCHAR
STARTCHAR ohorn
ENCODING 417
SWIDTH 566 0
DWIDTH 6 0
BBX 7 6 1 0
BITMAP
3A
4E
8C
88
98
70
ENDCHAR
STARTCHAR Uhorn
ENCODING 431
SWIDTH 693 0
DWIDTH 8 0
BBX 9 8 1 0
BITMAP
4280
4380
4500
C400
8400
8400
8800
7800
ENDCHAR
STARTCHAR uhorn
ENCODING 432
SWIDTH 620 0
DWIDTH 7 0
BBX 8 6 1 0
BITMAP
45
47
8A
98
B8
E8
ENDCHAR
STARTCHAR uni01B5
ENCODING 437
SWIDTH 578 0
DWIDTH 6 0
BBX 7 8 0 0
BITMAP
3E
04
08
38
30
60
40
FC
ENDCHAR
STARTCHAR uni01B6
ENCODING 438
SWIDTH 536 0
DWIDTH 6 0
BBX 6 6 0 0
BITMAP
7C
08
38
20
40
F8
ENDCHAR
STARTCHAR uni01BB
ENCODING 443
SWIDTH 633 0
DWIDTH 7 0
BBX 6 8 1 0
BITMAP
38
64
04
FC
10
20
40
F8
ENDCHAR
STARTCHAR uni01BC
ENCODING 444
SWIDTH 633 0
DWIDTH 7 0
BBX 6 8 1 0
BITMAP
3C
40
40
70
18
08
18
F0
ENDCHAR
STARTCHAR uni01C0
ENCODING 448
SWIDTH 233 0
DWIDTH 3 0
BBX 3 10 0 -2
BITMAP
20
20
40
40
40
40
40
40
80
80
ENDCHAR
STARTCHAR uni01C2
ENCODING 450
SWIDTH 633 0
DWIDTH 7 0
BBX 7 10 1 -2
BITMAP
08
08
10
FE
10
10
FE
10
20
20
ENDCHAR
STARTCHAR uni01C3
ENCODING 451
SWIDTH 193 0
DWIDTH 3 0
BBX 3 8 1 0
BITMAP
20
20
40
40
40
40
00
80
ENDCHAR
STARTCHAR uni01CD
ENCODING 461
SWIDTH 687 0
DWIDTH 8 0
BBX 7 10 0 0
BITMAP
1C
00
0C
0C
14
34
24
7E
42
82
ENDCHAR
STARTCHAR uni01CE
ENCODING 462
SWIDTH 608 0
DWIDTH 7 0
BBX 6 8 1 0
BITMAP
38
00
3C
64
4C
98
B8
E8
ENDCHAR
STARTCHAR uni01CF
ENCODING 463
SWIDTH 289 0
DWIDTH 3 0
BBX 3 10 1 0
BITMAP
E0
00
20
20
40
40
40
40
80
80
ENDCHAR
STARTCHAR uni01D0
ENCODING 464
SWIDTH 289 0
DWIDTH 3 0
BBX 3 8 1 0
BITMAP
E0
00
40
40
40
80
80
80
ENDCHAR
STARTCHAR uni01D1
ENCODING 465
SWIDTH 777 0
DWIDTH 9 0
BBX 8 10 1 0
BITMAP
1C
00
1E
22
43
81
82
82
C4
78
ENDCHAR
STARTCHAR uni01D2
ENCODING 466
SWIDTH 566 0
DWIDTH 6 0
BBX 5 8 1 0
BITMAP
38
00
38
48
88
88
98
70
ENDCHAR
STARTCHAR uni01D3
ENCODING 467
SWIDTH 693 0
DWIDTH 8 0
BBX 7 10 1 0
BITMAP
38
00
42
42
44
C4
84
84
88
78
ENDCHAR
STARTCHAR uni01D4
ENCODING 468
SWIDTH 620 0
DWIDTH 7 0
BBX 6 8 1 0
BITMAP
38
00
44
44
88
98
B8
E8
ENDCHAR
STARTCHAR uni01D5
ENCODING 469
SWIDTH 693 0
DWIDTH 8 0
BBX 7 11 1 0
BITMAP
38
00
14
42
42
44
C4
84
84
88
78
ENDCHAR
STARTCHAR uni01D6
ENCODING 470
SWIDTH 620 0
DWIDTH 7 0
BBX 6 9 1 0
BITMAP
38
00
28
44
44
88
98
B8
E8
ENDCHAR
STARTCHAR uni01D7
ENCODING 471
SWIDTH 693 0
DWIDTH 8 0
BBX 7 11 1 0
BITMAP
38
00
14
42
42
44
C4
84
84
88
78
ENDCHAR
STARTCHAR uni01D8
ENCODING 472
SWIDTH 620 0
DWIDTH 7 0
BBX 6 9 1 0
BITMAP
38
00
28
44
44
88
98
B8
E8
ENDCHAR
STARTCHAR uni01D9
ENCODING 473
SWIDTH 693 0
DWIDTH 8 0
BBX 7 11 1 0
BITMAP
38
00
14
42
42
44
C4
84
84
88
78
ENDCHAR
STARTCHAR uni01DA
ENCODING 474
SWIDTH 620 0
DWIDTH 7 0
BBX 6 9 1 0
BITMAP
38
00
28
44
44
88
98
B8
E8
ENDCHAR
STARTCHAR uni01DB
ENCODING 475
SWIDTH 693 0
DWIDTH 8 0
BBX 7 11 1 0
BITMAP
18
00
14
42
42
44
C4
84
84
88
78
ENDCHAR
STARTCHAR uni01DC
ENCODING 476
SWIDTH 620 0
DWIDTH 7 0
BBX 6 9 1 0
BITMAP
30
00
28
44
44
88
98
B8
E8
ENDCHAR
STARTCHAR uni01DD
ENCODING 477
SWIDTH 529 0
DWIDTH 6 0
BBX 5 6 1 0
BITMAP
70
88
38
48
90
E0
ENDCHAR
STARTCHAR uni01DE
ENCODING 478
SWIDTH 687 0
DWIDTH 8 0
BBX 7 11 0 0
BITMAP
1C
00
0A
0C
0C
14
34
24
7E
42
82
ENDCHAR
STARTCHAR uni01DF
ENCODING 479
SWIDTH 608 0
DWIDTH 7 0
BBX 6 9 1 0
BITMAP
38
00
14
3C
64
4C
98
B8
E8
ENDCHAR
STARTCHAR uni01E0
ENCODING 480
SWIDTH 687 0
DWIDTH 8 0
BBX 7 12 0 0
BITMAP
1C
00
08
00
0C
0C
14
34
24
7E
42
82
ENDCHAR
STARTCHAR uni01E1
ENCODING 481
SWIDTH 608 0
DWIDTH 7 0
BBX 6 10 1 0
BITMAP
38
00
10
00
3C
64
4C
98
B8
E8
ENDCHAR
STARTCHAR uni01E2
ENCODING 482
SWIDTH 893 0
DWIDTH 10 0
BBX 11 10 0 0
BITMAP
0700
0000
03E0
0600
0A00
1BC0
1200
3E00
4400
87C0
ENDCHAR
STARTCHAR uni01E3
ENCODING 483
SWIDTH 893 0
DWIDTH 10 0
BBX 9 8 1 0
BITMAP
1C00
0000
3F80
6480
C900
9E00
B880
E700
ENDCHAR
STARTCHAR uni01E4
ENCODING 484
SWIDTH 702 0
DWIDTH 8 0
BBX 7 8 1 0
BITMAP
1E
60
40
80
84
8E
C4
78
ENDCHAR
STARTCHAR uni01E5
ENCODING 485
SWIDTH 608 0
DWIDTH 7 0
BBX 6 8 1 -2
BITMAP
1C
24
4C
C8
58
FC
88
F0
ENDCHAR
STARTCHAR Gcaron
ENCODING 486
SWIDTH 702 0
DWIDTH 8 0
BBX 7 10 1 0
BITMAP
38
00
1E
60
40
80
84
84
C4
78
ENDCHAR
STARTCHAR gcaron
ENCODING 487
SWIDTH 608 0
DWIDTH 7 0
BBX 6 10 1 -2
BITMAP
38
00
1C
24
4C
C8
58
68
88
F0
ENDCHAR
STARTCHAR uni01E8
ENCODING 488
SWIDTH 635 0
DWIDTH 7 0
BBX 7 10 1 0
BITMAP
38
00
26
4C
58
70
70
50
88
8C
ENDCHAR
STARTCHAR uni01E9
ENCODING 489
SWIDTH 572 0
DWIDTH 6 0
BBX 6 10 1 0
BITMAP
38
00
20
40
4C
50
60
70
90
88
ENDCHAR
STARTCHAR uni01EA
ENCODING 490
SWIDTH 777 0
DWIDTH 9 0
BBX 8 10 1 -2
BITMAP
1E
22
43
81
82
82
C4
78
00
30
ENDCHAR
STARTCHAR uni01EB
ENCODING 491
SWIDTH 566 0
DWIDTH 6 0
BBX 5 8 1 -2
BITMAP
38
48
88
88
98
70
00
30
ENDCHAR
STARTCHAR uni01EC
ENCODING 492
SWIDTH 777 0
DWIDTH 9 0
BBX 8 12 1 -2
BITMAP
1C
00
1E
22
43
81
82
82
C4
78
00
30
ENDCHAR
STARTCHAR uni01ED
ENCODING 493
SWIDTH 566 0
DWIDTH 6 0
BBX 5 10 1 -2
BITMAP
70
00
38
48
88
88
98
70
00
30
ENDCHAR
STARTCHAR uni01F0
ENCODING 496
SWIDTH 325 0
DWIDTH 4 0
BBX 5 10 0 -2
BITMAP
38
00
18
10
10
10
10
10
20
C0
ENDCHAR
STARTCHAR uni01F4
ENCODING 500
SWIDTH 702 0
DWIDTH 8 0
BBX 7 10 1 0
BITMAP
38
00
1E
60
40
80
84
84
C4
78
ENDCHAR
STARTCHAR uni01F5
ENCODING 501
SWIDTH 608 0
DWIDTH 7 0
BBX 6 10 1 -2
BITMAP
38
00
1C
24
4C
C8
58
68
88
F0
ENDCHAR
STARTCHAR uni01F8
ENCODING 504
SWIDTH 741 0
DWIDTH 8 0
BBX 8 10 1 0
BITMAP
18
00
21
61
52
52
4A
4A
86
84
ENDCHAR
STARTCHAR uni01F9
ENCODING 505
SWIDTH 620 0
DWIDTH 7 0
BBX 6 8 1 0
BITMAP
30
00
5C
74
64
44
88
88
ENDCHAR
STARTCHAR Aringacute
ENCODING 506
SWIDTH 687 0
DWIDTH 8 0
BBX 7 12 0 0
BITMAP
1C
00
0C
0C
0C
0C
14
34
24
7E
42
82
ENDCHAR
STARTCHAR aringacute
ENCODING 507
SWIDTH 608 0
DWIDTH 7 0
BBX 6 10 1 0
BITMAP
38
00
18
18
3C
64
4C
98
B8
E8
ENDCHAR
STARTCHAR AEacute
ENCODING 508
SWIDTH 893 0
DWIDTH 10 0
BBX 11 10 0 0
BITMAP
0700
0000
03E0
0600
0A00
1BC0
1200
3E00
4400
87C0
ENDCHAR
STARTCHAR aeacute
ENCODING 509
SWIDTH 893 0
DWIDTH 10 0
BBX 9 8 1 0
BITMAP
1C00
0000
3F80
6480
C900
9E00
B880
E700
ENDCHAR
STARTCHAR Oslashacute
ENCODING 510
SWIDTH 777 0
DWIDTH 9 0
BBX 9 10 1 0
BITMAP
0E00
0000
1F80
2300
4700
8D00
9A00
B200
E400
F800
ENDCHAR
STARTCHAR oslashacute
ENCODING 511
SWIDTH 566 0
DWIDTH 6 0
BBX 6 8 1 0
BITMAP
38
00
3C
48
98
A8
D8
F0
ENDCHAR
STARTCHAR Scommaaccent
ENCODING 536
SWIDTH 553 0
DWIDTH 6 0
BBX 6 13 1 -5
BITMAP
3C
60
60
30
18
08
88
F0
00
10
30
10
20
ENDCHAR
STARTCHAR scommaaccent
ENCODING 537
SWIDTH 489 0
DWIDTH 5 0
BBX 5 11 1 -5
BITMAP
38
40
60
30
90
F0
00
20
60
20
40
ENDCHAR
STARTCHAR Tcommaaccent
ENCODING 538
SWIDTH 623 0
DWIDTH 7 0
BBX 7 13 1 -5
BITMAP
FE
10
10
20
20
20
20
60
00
10
30
10
20
ENDCHAR
STARTCHAR tcommaaccent
ENCODING 539
SWIDTH 383 0
DWIDTH 4 0
BBX 4 12 1 -5
BITMAP
60
F0
40
40
80
80
60
00
20
60
20
40
ENDCHAR
STARTCHAR uni021E
ENCODING 542
SWIDTH 735 0
DWIDTH 8 0
BBX 8 10 1 0
BITMAP
1C
00
21
43
42
7E
42
42
86
84
ENDCHAR
STARTCHAR uni021F
ENCODING 543
SWIDTH 620 0
DWIDTH 7 0
BBX 6 10 1 0
BITMAP
38
00
20
60
5C
74
64
44
88
88
ENDCHAR
STARTCHAR uni0226
ENCODING 550
SWIDTH 687 0
DWIDTH 8 0
BBX 7 10 0 0
BITMAP
08
00
0C
0C
14
34
24
7E
42
82
ENDCHAR
STARTCHAR uni0227
ENCODING 551
SWIDTH 608 0
DWIDTH 7 0
BBX 6 8 1 0
BITMAP
10
00
3C
64
4C
98
B8
E8
ENDCHAR
STARTCHAR uni0228
ENCODING 552
SWIDTH 547 0
DWIDTH 6 0
BBX 6 10 1 -2
BITMAP
7C
40
40
78
40
C0
80
F8
20
60
ENDCHAR
STARTCHAR uni0229
ENCODING 553
SWIDTH 529 0
DWIDTH 6 0
BBX 5 8 1 -2
BITMAP
38
48
90
E0
88
70
20
60
ENDCHAR
STARTCHAR uni022A
ENCODING 554
SWIDTH 777 0
DWIDTH 9 0
BBX 8 11 1 0
BITMAP
1C
00
14
1E
22
43
81
82
82
C4
78
ENDCHAR
STARTCHAR uni022B
ENCODING 555
SWIDTH 566 0
DWIDTH 6 0
BBX 5 9 1 0
BITMAP
38
00
28
38
48
88
88
98
70
ENDCHAR
STARTCHAR uni022C
ENCODING 556
SWIDTH 777 0
DWIDTH 9 0
BBX 8 11 1 0
BITMAP
1C
00
1E
1E
22
43
81
82
82
C4
78
ENDCHAR
STARTCHAR uni022D
ENCODING 557
SWIDTH 566 0
DWIDTH 6 0
BBX 6 9 1 0
BITMAP
38
00
3C
38
48
88
88
98
70
ENDCHAR
STARTCHAR uni022E
ENCODING 558
SWIDTH 777 0
DWIDTH 9 0
BBX 8 10 1 0
BITMAP
08
00
1E
22
43
81
82
82
C4
78
ENDCHAR
STARTCHAR uni022F
ENCODING 559
SWIDTH 566 0
DWIDTH 6 0
BBX 5 8 1 0
BITMAP
10
00
38
48
88
88
98
70
ENDCHAR
STARTCHAR uni0230
ENCODING 560
SWIDTH 777 0
DWIDTH 9 0
BBX 8 12 1 0
BITMAP
1C
00
08
00
1E
22
43
81
82
82
C4
78
ENDCHAR
STARTCHAR uni0231
ENCODING 561
SWIDTH 566 0
DWIDTH 6 0
BBX 5 10 1 0
BITMAP
38
00
10
00
38
48
88
88
98
70
ENDCHAR
STARTCHAR uni0232
ENCODING 562
SWIDTH 608 0
DWIDTH 7 0
BBX 6 10 2 0
BITMAP
38
00
8C
48
50
70
20
60
40
40
ENDCHAR
STARTCHAR uni0233
ENCODING 563
SWIDTH 548 0
DWIDTH 6 0
BBX 6 10 1 -2
BITMAP
70
00
C4
48
58
50
60
60
40
80
ENDCHAR
STARTCHAR uni0250
ENCODING 592
SWIDTH 608 0
DWIDTH 7 0
BBX 6 6 1 0
BITMAP
5C
74
64
C8
98
F0
ENDCHAR
STARTCHAR uni0259
ENCODING 601
SWIDTH 529 0
DWIDTH 6 0
BBX 5 6 1 0
BITMAP
70
88
38
48
90
E0
ENDCHAR
STARTCHAR uni025F
ENCODING 607
SWIDTH 383 0
DWIDTH 4 0
BBX 5 11 1 -5
BITMAP
08
08
18
10
10
10
10
78
20
20
C0
ENDCHAR
STARTCHAR uni0265
ENCODING 613
SWIDTH 620 0
DWIDTH 7 0
BBX 6 8 1 -2
BITMAP
44
44
88
98
B8
E8
18
10
ENDCHAR
STARTCHAR uni0275
ENCODING 629
SWIDTH 566 0
DWIDTH 6 0
BBX 5 6 1 0
BITMAP
38
48
F8
88
98
70
ENDCHAR
STARTCHAR uni0279
ENCODING 633
SWIDTH 478 0
DWIDTH 5 0
BBX 5 6 1 0
BITMAP
08
08
18
30
30
D0
ENDCHAR
STARTCHAR uni0287
ENCODING 647
SWIDTH 383 0
DWIDTH 4 0
BBX 4 7 1 0
BITMAP
60
10
10
20
20
F0
60
ENDCHAR
STARTCHAR uni0289
ENCODING 649
SWIDTH 620 0
DWIDTH 7 0
BBX 6 6 1 0
BITMAP
44
44
FC
98
B8
E8
ENDCHAR
STARTCHAR uni028C
ENCODING 652
SWIDTH 545 0
DWIDTH 6 0
BBX 5 6 2 0
BITMAP
10
28
28
48
48
88
ENDCHAR
STARTCHAR uni028D
ENCODING 653
SWIDTH 795 0
DWIDTH 9 0
BBX 8 6 1 0
BITMAP
13
33
35
55
59
99
ENDCHAR
STARTCHAR uni028E
ENCODING 654
SWIDTH 548 0
DWIDTH 6 0
BBX 6 8 1 0
BITMAP
04
08
18
18
28
68
48
8C
ENDCHAR
STARTCHAR uni029E
ENCODING 670
SWIDTH 572 0
DWIDTH 6 0
BBX 6 8 1 -2
BITMAP
44
24
38
18
28
C8
08
10
ENDCHAR
STARTCHAR uni02BB
ENCODING 699
SWIDTH 217 0
DWIDTH 2 0
BBX 2 3 2 5
BITMAP
40
80
C0
ENDCHAR
STARTCHAR afii57929
ENCODING 700
SWIDTH 217 0
DWIDTH 2 0
BBX 2 3 2 5
BITMAP
40
C0
80
ENDCHAR
STARTCHAR afii64937
ENCODING 701
SWIDTH 217 0
DWIDTH 2 0
BBX 2 3 2 5
BITMAP
80
C0
40
ENDCHAR
STARTCHAR circumflex
ENCODING 710
SWIDTH 566 0
DWIDTH 6 0
BBX 3 1 3 7
BITMAP
E0
ENDCHAR
STARTCHAR caron
ENCODING 711
SWIDTH 568 0
DWIDTH 6 0
BBX 3 1 4 7
BITMAP
E0
ENDCHAR
STARTCHAR uni02C8
ENCODING 712
SWIDTH 217 0
DWIDTH 2 0
BBX 1 3 2 5
BITMAP
80
80
80
ENDCHAR
STARTCHAR macron
ENCODING 713
SWIDTH 566 0
DWIDTH 6 0
BBX 3 1 3 7
BITMAP
E0
ENDCHAR
STARTCHAR uni02CA
ENCODING 714
SWIDTH 566 0
DWIDTH 6 0
BBX 3 1 4 7
BITMAP
E0
ENDCHAR
STARTCHAR uni02CB
ENCODING 715
SWIDTH 572 0
DWIDTH 6 0
BBX 2 1 4 7
BITMAP
C0
ENDCHAR
STARTCHAR uni02CD
ENCODING 717
SWIDTH 566 0
DWIDTH 6 0
BBX 3 1 3 -2
BITMAP
E0
ENDCHAR
STARTCHAR uni02CE
ENCODING 718
SWIDTH 572 0
DWIDTH 6 0
BBX 2 1 4 -2
BITMAP
C0
ENDCHAR
STARTCHAR uni02CF
ENCODING 719
SWIDTH 566 0
DWIDTH 6 0
BBX 3 1 4 -2
BITMAP
E0
ENDCHAR
STARTCHAR breve
ENCODING 728
SWIDTH 566 0
DWIDTH 6 0
BBX 4 1 3 7
BITMAP
F0
ENDCHAR
STARTCHAR dotaccent
ENCODING 729
SWIDTH 566 0
DWIDTH 6 0
BBX 1 1 4 7
BITMAP
80
ENDCHAR
STARTCHAR ring
ENCODING 730
SWIDTH 567 0
DWIDTH 6 0
BBX 2 2 4 7
BITMAP
C0
C0
ENDCHAR
STARTCHAR ogonek
ENCODING 731
SWIDTH 566 0
DWIDTH 6 0
BBX 2 1 2 -2
BITMAP
C0
ENDCHAR
STARTCHAR tilde
ENCODING 732
SWIDTH 566 0
DWIDTH 6 0
BBX 4 1 3 7
BITMAP
F0
ENDCHAR
STARTCHAR hungarumlaut
ENCODING 733
SWIDTH 566 0
DWIDTH 6 0
BBX 4 1 3 7
BITMAP
F0
ENDCHAR
STARTCHAR uni02EE
ENCODING 750
SWIDTH 361 0
DWIDTH 4 0
BBX 3 3 2 5
BITMAP
E0
A0
A0
ENDCHAR
STARTCHAR uni037E
ENCODING 894
SWIDTH 316 0
DWIDTH 3 0
BBX 3 8 1 -2
BITMAP
20
00
00
00
00
C0
80
80
ENDCHAR
STARTCHAR tonos
ENCODING 900
SWIDTH 566 0
DWIDTH 6 0
BBX 3 1 4 7
BITMAP
E0
ENDCHAR
STARTCHAR dieresistonos
ENCODING 901
SWIDTH 566 0
DWIDTH 6 0
BBX 3 3 3 7
BITMAP
E0
00
A0
ENDCHAR
STARTCHAR anoteleia
ENCODING 903
SWIDTH 316 0
DWIDTH 7 0
BBX 2 1 3 3
BITMAP
C0
ENDCHAR
STARTCHAR mu
ENCODING 956
SWIDTH 627 0
DWIDTH 7 0
BBX 6 8 1 -2
BITMAP
44
44
4C
48
58
E8
80
80
ENDCHAR
STARTCHAR uni1E00
ENCODING 7680
SWIDTH 687 0
DWIDTH 8 0
BBX 7 11 0 -3
BITMAP
0C
0C
14
34
24
7E
42
82
00
18
18
ENDCHAR
STARTCHAR uni1E01
ENCODING 7681
SWIDTH 608 0
DWIDTH 7 0
BBX 6 9 1 -3
BITMAP
3C
64
4C
98
B8
E8
00
30
30
ENDCHAR
STARTCHAR uni1E02
ENCODING 7682
SWIDTH 593 0
DWIDTH 7 0
BBX 6 10 1 0
BITMAP
10
00
7C
44
48
78
48
C8
88
F0
ENDCHAR
STARTCHAR uni1E03
ENCODING 7683
SWIDTH 608 0
DWIDTH 7 0
BBX 6 10 1 0
BITMAP
10
00
20
40
5C
74
64
48
98
F0
ENDCHAR
STARTCHAR uni1E04
ENCODING 7684
SWIDTH 593 0
DWIDTH 7 0
BBX 6 10 1 -2
BITMAP
7C
44
48
78
48
C8
88
F0
00
20
ENDCHAR
STARTCHAR uni1E05
ENCODING 7685
SWIDTH 608 0
DWIDTH 7 0
BBX 6 10 1 -2
BITMAP
20
40
5C
74
64
48
98
F0
00
20
ENDCHAR
STARTCHAR uni1E06
ENCODING 7686
SWIDTH 593 0
DWIDTH 7 0
BBX 6 10 1 -2
BITMAP
7C
44
48
78
48
C8
88
F0
00
70
ENDCHAR
STARTCHAR uni1E07
ENCODING 7687
SWIDTH 608 0
DWIDTH 7 0
BBX 6 10 1 -2
BITMAP
20
40
5C
74
64
48
98
F0
00
70
ENDCHAR
STARTCHAR uni1E08
ENCODING 7688
SWIDTH 679 0
DWIDTH 7 0
BBX 7 12 1 -2
BITMAP
38
00
1E
60
40
C0
80
80
C4
78
20
60
ENDCHAR
STARTCHAR uni1E09
ENCODING 7689
SWIDTH 503 0
DWIDTH 6 0
BBX 5 10 1 -2
BITMAP
70
00
38
40
80
80
90
70
20
60
ENDCHAR
STARTCHAR uni1E0A
ENCODING 7690
SWIDTH 743 0
DWIDTH 8 0
BBX 8 10 1 0
BITMAP
08
00
3E
63
41
41
41
42
86
F8
ENDCHAR
STARTCHAR uni1E0B
ENCODING 7691
SWIDTH 608 0
DWIDTH 7 0
BBX 6 10 1 0
BITMAP
08
00
04
04
3C
48
48
98
B8
F8
ENDCHAR
STARTCHAR uni1E0C
ENCODING 7692
SWIDTH 743 0
DWIDTH 8 0
BBX 8 10 1 -2
BITMAP
3E
63
41
41
41
42
86
F8
00
10
ENDCHAR
STARTCHAR uni1E0D
ENCODING 7693
SWIDTH 608 0
DWIDTH 7 0
BBX 6 10 1 -2
BITMAP
04
04
3C
48
48
98
B8
F8
00
20
ENDCHAR
STARTCHAR uni1E0E
ENCODING 7694
SWIDTH 743 0
DWIDTH 8 0
BBX 8 10 1 -2
BITMAP
3E
63
41
41
41
42
86
F8
00
38
ENDCHAR
STARTCHAR uni1E0F
ENCODING 7695
SWIDTH 608 0
DWIDTH 7 0
BBX 6 10 1 -2
BITMAP
04
04
3C
48
48
98
B8
F8
00
70
ENDCHAR
STARTCHAR uni1E10
ENCODING 7696
SWIDTH 743 0
DWIDTH 8 0
BBX 8 10 1 -2
BITMAP
3E
63
41
41
41
42
86
F8
10
30
ENDCHAR
STARTCHAR uni1E11
ENCODING 7697
SWIDTH 608 0
DWIDTH 7 0
BBX 6 10 1 -2
BITMAP
04
04
3C
48
48
98
B8
F8
20
60
ENDCHAR
STARTCHAR uni1E12
ENCODING 7698
SWIDTH 743 0
DWIDTH 8 0
BBX 8 10 1 -2
BITMAP
3E
63
41
41
41
42
86
F8
00
38
ENDCHAR
STARTCHAR uni1E13
ENCODING 7699
SWIDTH 608 0
DWIDTH 7 0
BBX 6 10 1 -2
BITMAP
04
04
3C
48
48
98
B8
F8
00
70
ENDCHAR
STARTCHAR uni1E14
ENCODING 7700
SWIDTH 547 0
DWIDTH 6 0
BBX 6 12 1 0
BITMAP
30
00
70
00
7C
40
40
78
40
C0
80
F8
ENDCHAR
STARTCHAR uni1E15
ENCODING 7701
SWIDTH 529 0
DWIDTH 6 0
BBX 5 10 1 0
BITMAP
30
00
38
00
38
48
90
E0
88
70
ENDCHAR
STARTCHAR uni1E16
ENCODING 7702
SWIDTH 547 0
DWIDTH 6 0
BBX 6 12 1 0
BITMAP
38
00
70
00
7C
40
40
78
40
C0
80
F8
ENDCHAR
STARTCHAR uni1E17
ENCODING 7703
SWIDTH 529 0
DWIDTH 6 0
BBX 5 10 1 0
BITMAP
38
00
38
00
38
48
90
E0
88
70
ENDCHAR
STARTCHAR uni1E18
ENCODING 7704
SWIDTH 547 0
DWIDTH 6 0
BBX 6 10 1 -2
BITMAP
7C
40
40
78
40
C0
80
F8
00
70
ENDCHAR
STARTCHAR uni1E19
ENCODING 7705
SWIDTH 529 0
DWIDTH 6 0
BBX 5 8 1 -2
BITMAP
38
48
90
E0
88
70
00
70
ENDCHAR
STARTCHAR uni1E1A
ENCODING 7706
SWIDTH 547 0
DWIDTH 6 0
BBX 6 10 1 -2
BITMAP
7C
40
40
78
40
C0
80
F8
00
F0
ENDCHAR
STARTCHAR uni1E1B
ENCODING 7707
SWIDTH 529 0
DWIDTH 6 0
BBX 5 8 1 -2
BITMAP
38
48
90
E0
88
70
00
78
ENDCHAR
STARTCHAR uni1E1C
ENCODING 7708
SWIDTH 547 0
DWIDTH 6 0
BBX 6 12 1 -2
BITMAP
78
00
7C
40
40
78
40
C0
80
F8
20
60
ENDCHAR
STARTCHAR uni1E1D
ENCODING 7709
SWIDTH 529 0
DWIDTH 6 0
BBX 5 10 1 -2
BITMAP
78
00
38
48
90
E0
88
70
20
60
ENDCHAR
STARTCHAR uni1E1E
ENCODING 7710
SWIDTH 536 0
DWIDTH 6 0
BBX 6 10 1 0
BITMAP
20
00
7C
40
40
40
78
C0
80
80
ENDCHAR
STARTCHAR uni1E1F
ENCODING 7711
SWIDTH 383 0
DWIDTH 4 0
BBX 5 13 1 -2
BITMAP
10
00
18
20
20
F0
40
40
40
40
C0
80
80
ENDCHAR
STARTCHAR uni1E20
ENCODING 7712
SWIDTH 702 0
DWIDTH 8 0
BBX 7 10 1 0
BITMAP
38
00
1E
60
40
80
84
84
C4
78
ENDCHAR
STARTCHAR uni1E21
ENCODING 7713
SWIDTH 608 0
DWIDTH 7 0
BBX 6 10 1 -2
BITMAP
38
00
1C
24
4C
C8
58
68
88
F0
ENDCHAR
STARTCHAR uni1E22
ENCODING 7714
SWIDTH 735 0
DWIDTH 8 0
BBX 8 10 1 0
BITMAP
08
00
21
43
42
7E
42
42
86
84
ENDCHAR
STARTCHAR uni1E23
ENCODING 7715
SWIDTH 620 0
DWIDTH 7 0
BBX 6 10 1 0
BITMAP
10
00
20
60
5C
74
64
44
88
88
ENDCHAR
STARTCHAR uni1E24
ENCODING 7716
SWIDTH 735 0
DWIDTH 8 0
BBX 8 10 1 -2
BITMAP
21
43
42
7E
42
42
86
84
00
10
ENDCHAR
STARTCHAR uni1E25
ENCODING 7717
SWIDTH 620 0
DWIDTH 7 0
BBX 6 10 1 -2
BITMAP
20
60
5C
74
64
44
88
88
00
20
ENDCHAR
STARTCHAR uni1E26
ENCODING 7718
SWIDTH 735 0
DWIDTH 8 0
BBX 8 10 1 0
BITMAP
14
00
21
43
42
7E
42
42
86
84
ENDCHAR
STARTCHAR uni1E27
ENCODING 7719
SWIDTH 620 0
DWIDTH 7 0
BBX 6 10 1 0
BITMAP
28
00
20
60
5C
74
64
44
88
88
ENDCHAR
STARTCHAR uni1E28
ENCODING 7720
SWIDTH 735 0
DWIDTH 8 0
BBX 8 10 1 -2
BITMAP
21
43
42
7E
42
42
86
8C
08
18
ENDCHAR
STARTCHAR uni1E29
ENCODING 7721
SWIDTH 620 0
DWIDTH 7 0
BBX 6 10 1 -2
BITMAP
20
60
5C
74
64
44
88
98
10
30
ENDCHAR
STARTCHAR uni1E2A
ENCODING 7722
SWIDTH 735 0
DWIDTH 8 0
BBX 8 10 1 -2
BITMAP
21
43
42
7E
42
42
86
84
00
3C
ENDCHAR
STARTCHAR uni1E2B
ENCODING 7723
SWIDTH 620 0
DWIDTH 7 0
BBX 6 10 1 -2
BITMAP
20
60
5C
74
64
44
88
88
00
78
ENDCHAR
STARTCHAR uni1E2C
ENCODING 7724
SWIDTH 289 0
DWIDTH 3 0
BBX 4 10 0 -2
BITMAP
10
10
20
20
20
20
40
40
00
F0
ENDCHAR
STARTCHAR uni1E2D
ENCODING 7725
SWIDTH 289 0
DWIDTH 3 0
BBX 4 10 0 -2
BITMAP
10
00
30
20
20
20
40
40
00
F0
ENDCHAR
STARTCHAR uni1E2E
ENCODING 7726
SWIDTH 289 0
DWIDTH 3 0
BBX 4 11 1 0
BITMAP
70
00
50
20
20
40
40
40
40
80
80
ENDCHAR
STARTCHAR uni1E2F
ENCODING 7727
SWIDTH 289 0
DWIDTH 3 0
BBX 4 9 1 0
BITMAP
70
00
50
40
40
40
80
80
80
ENDCHAR
STARTCHAR uni1E30
ENCODING 7728
SWIDTH 635 0
DWIDTH 7 0
BBX 7 10 1 0
BITMAP
38
00
26
4C
58
70
70
50
88
8C
ENDCHAR
STARTCHAR uni1E31
ENCODING 7729
SWIDTH 572 0
DWIDTH 6 0
BBX 6 10 1 0
BITMAP
38
00
20
40
4C
50
60
70
90
88
ENDCHAR
STARTCHAR uni1E32
ENCODING 7730
SWIDTH 635 0
DWIDTH 7 0
BBX 7 10 1 -2
BITMAP
26
4C
58
70
70
50
88
8C
00
10
ENDCHAR
STARTCHAR uni1E33
ENCODING 7731
SWIDTH 572 0
DWIDTH 6 0
BBX 6 10 1 -2
BITMAP
20
40
4C
50
60
70
90
88
00
20
ENDCHAR
STARTCHAR uni1E34
ENCODING 7732
SWIDTH 635 0
DWIDTH 7 0
BBX 7 10 1 -2
BITMAP
26
4C
58
70
70
50
88
8C
00
38
ENDCHAR
STARTCHAR uni1E35
ENCODING 7733
SWIDTH 572 0
DWIDTH 6 0
BBX 6 10 1 -2
BITMAP
20
40
4C
50
60
70
90
88
00
70
ENDCHAR
STARTCHAR uni1E36
ENCODING 7734
SWIDTH 545 0
DWIDTH 6 0
BBX 5 10 1 -2
BITMAP
60
40
40
40
40
C0
80
F8
00
20
ENDCHAR
STARTCHAR uni1E37
ENCODING 7735
SWIDTH 289 0
DWIDTH 3 0
BBX 3 10 1 -2
BITMAP
20
20
40
40
40
40
80
80
00
40
ENDCHAR
STARTCHAR uni1E38
ENCODING 7736
SWIDTH 545 0
DWIDTH 6 0
BBX 5 12 1 -2
BITMAP
70
00
60
40
40
40
40
C0
80
F8
00
20
ENDCHAR
STARTCHAR uni1E39
ENCODING 7737
SWIDTH 289 0
DWIDTH 3 0
BBX 3 12 1 -2
BITMAP
E0
00
20
20
40
40
40
40
80
80
00
40
ENDCHAR
STARTCHAR uni1E3A
ENCODING 7738
SWIDTH 545 0
DWIDTH 6 0
BBX 5 10 1 -2
BITMAP
60
40
40
40
40
C0
80
F8
00
70
ENDCHAR
STARTCHAR uni1E3B
ENCODING 7739
SWIDTH 289 0
DWIDTH 3 0
BBX 3 10 1 -2
BITMAP
20
20
40
40
40
40
80
80
00
E0
ENDCHAR
STARTCHAR uni1E3C
ENCODING 7740
SWIDTH 545 0
DWIDTH 6 0
BBX 5 10 1 -2
BITMAP
60
40
40
40
40
C0
80
F8
00
70
ENDCHAR
STARTCHAR uni1E3D
ENCODING 7741
SWIDTH 289 0
DWIDTH 3 0
BBX 3 10 1 -2
BITMAP
20
20
40
40
40
40
80
80
00
E0
ENDCHAR
STARTCHAR uni1E3E
ENCODING 7742
SWIDTH 828 0
DWIDTH 9 0
BBX 9 10 1 0
BITMAP
1C00
0000
2180
6180
5300
5500
5500
5900
9900
8200
ENDCHAR
STARTCHAR uni1E3F
ENCODING 7743
SWIDTH 934 0
DWIDTH 10 0
BBX 9 8 1 0
BITMAP
1C00
0000
5980
6A80
6C80
C880
8900
8900
ENDCHAR
STARTCHAR uni1E40
ENCODING 7744
SWIDTH 828 0
DWIDTH 9 0
BBX 9 10 1 0
BITMAP
0800
0000
2180
6180
5300
5500
5500
5900
9900
8200
ENDCHAR
STARTCHAR uni1E41
ENCODING 7745
SWIDTH 934 0
DWIDTH 10 0
BBX 9 8 1 0
BITMAP
0800
0000
5980
6A80
6C80
C880
8900
8900
ENDCHAR
STARTCHAR uni1E42
ENCODING 7746
SWIDTH 828 0
DWIDTH 9 0
BBX 9 10 1 -2
BITMAP
2180
6180
5300
5500
5500
5900
9900
8200
0000
0800
ENDCHAR
STARTCHAR uni1E43
ENCODING 7747
SWIDTH 934 0
DWIDTH 10 0
BBX 9 8 1 -2
BITMAP
5980
6A80
6C80
C880
8900
8900
0000
0800
ENDCHAR
STARTCHAR uni1E44
ENCODING 7748
SWIDTH 741 0
DWIDTH 8 0
BBX 8 10 1 0
BITMAP
08
00
21
61
52
52
4A
4A
86
84
ENDCHAR
STARTCHAR uni1E45
ENCODING 7749
SWIDTH 620 0
DWIDTH 7 0
BBX 6 8 1 0
BITMAP
10
00
5C
74
64
44
88
88
ENDCHAR
STARTCHAR uni1E46
ENCODING 7750
SWIDTH 741 0
DWIDTH 8 0
BBX 8 10 1 -2
BITMAP
21
61
52
52
4A
4A
86
84
00
10
ENDCHAR
STARTCHAR uni1E47
ENCODING 7751
SWIDTH 620 0
DWIDTH 7 0
BBX 6 8 1 -2
BITMAP
5C
74
64
44
88
88
00
20
ENDCHAR
STARTCHAR uni1E48
ENCODING 7752
SWIDTH 741 0
DWIDTH 8 0
BBX 8 10 1 -2
BITMAP
21
61
52
52
4A
4A
86
84
00
38
ENDCHAR
STARTCHAR uni1E49
ENCODING 7753
SWIDTH 620 0
DWIDTH 7 0
BBX 6 8 1 -2
BITMAP
5C
74
64
44
88
88
00
70
ENDCHAR
STARTCHAR uni1E4A
ENCODING 7754
SWIDTH 741 0
DWIDTH 8 0
BBX 8 10 1 -2
BITMAP
21
61
52
52
4A
4A
86
84
00
38
ENDCHAR
STARTCHAR uni1E4B
ENCODING 7755
SWIDTH 620 0
DWIDTH 7 0
BBX 6 8 1 -2
BITMAP
5C
74
64
44
88
88
00
70
ENDCHAR
STARTCHAR uni1E4C
ENCODING 7756
SWIDTH 777 0
DWIDTH 9 0
BBX 8 11 1 0
BITMAP
1C
00
1E
1E
22
43
81
82
82
C4
78
ENDCHAR
STARTCHAR uni1E4D
ENCODING 7757
SWIDTH 566 0
DWIDTH 6 0
BBX 6 9 1 0
BITMAP
38
00
3C
38
48
88
88
98
70
ENDCHAR
STARTCHAR uni1E4E
ENCODING 7758
SWIDTH 777 0
DWIDTH 9 0
BBX 8 11 1 0
BITMAP
14
00
1E
1E
22
43
81
82
82
C4
78
ENDCHAR
STARTCHAR uni1E4F
ENCODING 7759
SWIDTH 566 0
DWIDTH 6 0
BBX 6 9 1 0
BITMAP
28
00
3C
38
48
88
88
98
70
ENDCHAR
STARTCHAR uni1E50
ENCODING 7760
SWIDTH 777 0
DWIDTH 9 0
BBX 8 12 1 0
BITMAP
0C
00
1C
00
1E
22
43
81
82
82
C4
78
ENDCHAR
STARTCHAR uni1E51
ENCODING 7761
SWIDTH 566 0
DWIDTH 6 0
BBX 5 10 1 0
BITMAP
30
00
38
00
38
48
88
88
98
70
ENDCHAR
STARTCHAR uni1E52
ENCODING 7762
SWIDTH 777 0
DWIDTH 9 0
BBX 8 12 1 0
BITMAP
1C
00
1C
00
1E
22
43
81
82
82
C4
78
ENDCHAR
STARTCHAR uni1E53
ENCODING 7763
SWIDTH 566 0
DWIDTH 6 0
BBX 5 10 1 0
BITMAP
38
00
38
00
38
48
88
88
98
70
ENDCHAR
STARTCHAR uni1E54
ENCODING 7764
SWIDTH 575 0
DWIDTH 6 0
BBX 6 10 1 0
BITMAP
38
00
7C
44
44
48
70
C0
80
80
ENDCHAR
STARTCHAR uni1E55
ENCODING 7765
SWIDTH 608 0
DWIDTH 7 0
BBX 6 10 1 -2
BITMAP
38
00
7C
74
64
48
48
F0
80
80
ENDCHAR
STARTCHAR uni1E56
ENCODING 7766
SWIDTH 575 0
DWIDTH 6 0
BBX 6 10 1 0
BITMAP
10
00
7C
44
44
48
70
C0
80
80
ENDCHAR
STARTCHAR uni1E57
ENCODING 7767
SWIDTH 608 0
DWIDTH 7 0
BBX 6 10 1 -2
BITMAP
10
00
7C
74
64
48
48
F0
80
80
ENDCHAR
STARTCHAR uni1E58
ENCODING 7768
SWIDTH 632 0
DWIDTH 7 0
BBX 6 10 1 0
BITMAP
10
00
7C
44
44
48
70
D0
88
8C
ENDCHAR
STARTCHAR uni1E59
ENCODING 7769
SWIDTH 478 0
DWIDTH 5 0
BBX 5 8 1 0
BITMAP
20
00
58
60
60
C0
80
80
ENDCHAR
STARTCHAR uni1E5A
ENCODING 7770
SWIDTH 632 0
DWIDTH 7 0
BBX 6 10 1 -2
BITMAP
7C
44
44
48
70
D0
88
8C
00
20
ENDCHAR
STARTCHAR uni1E5B
ENCODING 7771
SWIDTH 478 0
DWIDTH 5 0
BBX 5 8 1 -2
BITMAP
58
60
60
C0
80
80
00
40
ENDCHAR
STARTCHAR uni1E5C
ENCODING 7772
SWIDTH 632 0
DWIDTH 7 0
BBX 6 12 1 -2
BITMAP
38
00
7C
44
44
48
70
D0
88
8C
00
20
ENDCHAR
STARTCHAR uni1E5D
ENCODING 7773
SWIDTH 478 0
DWIDTH 5 0
BBX 5 10 1 -2
BITMAP
70
00
58
60
60
C0
80
80
00
40
ENDCHAR
STARTCHAR uni1E5E
ENCODING 7774
SWIDTH 632 0
DWIDTH 7 0
BBX 6 10 1 -2
BITMAP
7C
44
44
48
70
D0
88
8C
00
70
ENDCHAR
STARTCHAR uni1E5F
ENCODING 7775
SWIDTH 478 0
DWIDTH 5 0
BBX 5 8 1 -2
BITMAP
58
60
60
C0
80
80
00
E0
ENDCHAR
STARTCHAR uni1E60
ENCODING 7776
SWIDTH 553 0
DWIDTH 6 0
BBX 6 10 1 0
BITMAP
10
00
3C
60
60
30
18
08
88
F0
ENDCHAR
STARTCHAR uni1E61
ENCODING 7777
SWIDTH 489 0
DWIDTH 5 0
BBX 5 8 1 0
BITMAP
20
00
38
40
60
30
90
F0
ENDCHAR
STARTCHAR uni1E62
ENCODING 7778
SWIDTH 553 0
DWIDTH 6 0
BBX 6 10 1 -2
BITMAP
3C
60
60
30
18
08
88
F0
00
20
ENDCHAR
STARTCHAR uni1E63
ENCODING 7779
SWIDTH 489 0
DWIDTH 5 0
BBX 5 8 1 -2
BITMAP
38
40
60
30
90
F0
00
20
ENDCHAR
STARTCHAR uni1E64
ENCODING 7780
SWIDTH 553 0
DWIDTH 6 0
BBX 6 12 1 0
BITMAP
10
00
38
00
3C
60
60
30
18
08
88
F0
ENDCHAR
STARTCHAR uni1E65
ENCODING 7781
SWIDTH 489 0
DWIDTH 5 0
BBX 5 10 1 0
BITMAP
20
00
70
00
38
40
60
30
90
F0
ENDCHAR
STARTCHAR uni1E66
ENCODING 7782
SWIDTH 553 0
DWIDTH 6 0
BBX 6 11 1 0
BITMAP
10
00
18
3C
60
60
30
18
08
88
F0
ENDCHAR
STARTCHAR uni1E67
ENCODING 7783
SWIDTH 489 0
DWIDTH 5 0
BBX 5 9 1 0
BITMAP
10
00
30
38
40
60
30
90
F0
ENDCHAR
STARTCHAR uni1E68
ENCODING 7784
SWIDTH 553 0
DWIDTH 6 0
BBX 6 12 1 -2
BITMAP
10
00
3C
60
60
30
18
08
88
F0
00
20
ENDCHAR
STARTCHAR uni1E69
ENCODING 7785
SWIDTH 489 0
DWIDTH 5 0
BBX 5 10 1 -2
BITMAP
20
00
38
40
60
30
90
F0
00
20
ENDCHAR
STARTCHAR uni1E6A
ENCODING 7786
SWIDTH 623 0
DWIDTH 7 0
BBX 7 10 1 0
BITMAP
10
00
FE
10
10
20
20
20
20
60
ENDCHAR
STARTCHAR uni1E6B
ENCODING 7787
SWIDTH 383 0
DWIDTH 4 0
BBX 4 9 1 0
BITMAP
20
00
60
F0
40
40
80
80
60
ENDCHAR
STARTCHAR uni1E6C
ENCODING 7788
SWIDTH 623 0
DWIDTH 7 0
BBX 7 10 1 -2
BITMAP
FE
10
10
20
20
20
20
60
00
20
ENDCHAR
STARTCHAR uni1E6D
ENCODING 7789
SWIDTH 383 0
DWIDTH 4 0
BBX 4 9 1 -2
BITMAP
60
F0
40
40
80
80
60
00
40
ENDCHAR
STARTCHAR uni1E6E
ENCODING 7790
SWIDTH 623 0
DWIDTH 7 0
BBX 7 10 1 -2
BITMAP
FE
10
10
20
20
20
20
60
00
70
ENDCHAR
STARTCHAR uni1E6F
ENCODING 7791
SWIDTH 383 0
DWIDTH 4 0
BBX 4 9 1 -2
BITMAP
60
F0
40
40
80
80
60
00
E0
ENDCHAR
STARTCHAR uni1E70
ENCODING 7792
SWIDTH 623 0
DWIDTH 7 0
BBX 7 10 1 -2
BITMAP
FE
10
10
20
20
20
20
60
00
70
ENDCHAR
STARTCHAR uni1E71
ENCODING 7793
SWIDTH 383 0
DWIDTH 4 0
BBX 4 9 1 -2
BITMAP
60
F0
40
40
80
80
60
00
E0
ENDCHAR
STARTCHAR uni1E72
ENCODING 7794
SWIDTH 693 0
DWIDTH 8 0
BBX 7 10 1 -2
BITMAP
42
42
44
C4
84
84
88
78
00
28
ENDCHAR
STARTCHAR uni1E73
ENCODING 7795
SWIDTH 620 0
DWIDTH 7 0
BBX 6 8 1 -2
BITMAP
44
44
88
98
B8
E8
00
50
ENDCHAR
STARTCHAR uni1E74
ENCODING 7796
SWIDTH 693 0
DWIDTH 8 0
BBX 7 10 1 -2
BITMAP
42
42
44
C4
84
84
88
78
00
78
ENDCHAR
STARTCHAR uni1E75
ENCODING 7797
SWIDTH 620 0
DWIDTH 7 0
BBX 6 8 1 -2
BITMAP
44
44
88
98
B8
E8
00
78
ENDCHAR
STARTCHAR uni1E76
ENCODING 7798
SWIDTH 693 0
DWIDTH 8 0
BBX 7 10 1 -2
BITMAP
42
42
44
C4
84
84
88
78
00
38
ENDCHAR
STARTCHAR uni1E77
ENCODING 7799
SWIDTH 620 0
DWIDTH 7 0
BBX 6 8 1 -2
BITMAP
44
44
88
98
B8
E8
00
70
ENDCHAR
STARTCHAR uni1E78
ENCODING 7800
SWIDTH 693 0
DWIDTH 8 0
BBX 7 12 1 0
BITMAP
38
00
3C
00
42
42
44
C4
84
84
88
78
ENDCHAR
STARTCHAR uni1E79
ENCODING 7801
SWIDTH 620 0
DWIDTH 7 0
BBX 6 10 1 0
BITMAP
38
00
78
00
44
44
88
98
B8
E8
ENDCHAR
STARTCHAR uni1E7A
ENCODING 7802
SWIDTH 693 0
DWIDTH 8 0
BBX 7 12 1 0
BITMAP
28
00
38
00
42
42
44
C4
84
84
88
78
ENDCHAR
STARTCHAR uni1E7B
ENCODING 7803
SWIDTH 620 0
DWIDTH 7 0
BBX 6 10 1 0
BITMAP
28
00
38
00
44
44
88
98
B8
E8
ENDCHAR
STARTCHAR uni1E7C
ENCODING 7804
SWIDTH 687 0
DWIDTH 8 0
BBX 7 10 2 0
BITMAP
78
00
82
84
C4
48
58
50
60
60
ENDCHAR
STARTCHAR uni1E7D
ENCODING 7805
SWIDTH 545 0
DWIDTH 6 0
BBX 5 8 2 0
BITMAP
F0
00
88
90
90
A0
A0
40
ENDCHAR
STARTCHAR uni1E7E
ENCODING 7806
SWIDTH 687 0
DWIDTH 8 0
BBX 7 10 2 -2
BITMAP
82
84
C4
48
58
50
60
60
00
20
ENDCHAR
STARTCHAR uni1E7F
ENCODING 7807
SWIDTH 545 0
DWIDTH 6 0
BBX 5 8 2 -2
BITMAP
88
90
90
A0
A0
40
00
40
ENDCHAR
STARTCHAR Wgrave
ENCODING 7808
SWIDTH 886 0
DWIDTH 10 0
BBX 9 10 2 0
BITMAP
1800
0000
8880
8880
9900
9900
AA00
AA00
CC00
CC00
ENDCHAR
STARTCHAR wgrave
ENCODING 7809
SWIDTH 795 0
DWIDTH 9 0
BBX 8 8 1 0
BITMAP
18
00
99
9A
AA
AC
CC
C8
ENDCHAR
STARTCHAR Wacute
ENCODING 7810
SWIDTH 886 0
DWIDTH 10 0
BBX 9 10 2 0
BITMAP
1C00
0000
8880
8880
9900
9900
AA00
AA00
CC00
CC00
ENDCHAR
STARTCHAR wacute
ENCODING 7811
SWIDTH 795 0
DWIDTH 9 0
BBX 8 8 1 0
BITMAP
38
00
99
9A
AA
AC
CC
C8
ENDCHAR
STARTCHAR Wdieresis
ENCODING 7812
SWIDTH 886 0
DWIDTH 10 0
BBX 9 10 2 0
BITMAP
1400
0000
8880
8880
9900
9900
AA00
AA00
CC00
CC00
ENDCHAR
STARTCHAR wdieresis
ENCODING 7813
SWIDTH 795 0
DWIDTH 9 0
BBX 8 8 1 0
BITMAP
28
00
99
9A
AA
AC
CC
C8
ENDCHAR
STARTCHAR uni1E86
ENCODING 7814
SWIDTH 886 0
DWIDTH 10 0
BBX 9 10 2 0
BITMAP
0800
0000
8880
8880
9900
9900
AA00
AA00
CC00
CC00
ENDCHAR
STARTCHAR uni1E87
ENCODING 7815
SWIDTH 795 0
DWIDTH 9 0
BBX 8 8 1 0
BITMAP
10
00
99
9A
AA
AC
CC
C8
ENDCHAR
STARTCHAR uni1E88
ENCODING 7816
SWIDTH 886 0
DWIDTH 10 0
BBX 9 10 2 -2
BITMAP
8880
8880
9900
9900
AA00
AA00
CC00
CC00
0000
1000
ENDCHAR
STARTCHAR uni1E89
ENCODING 7817
SWIDTH 795 0
DWIDTH 9 0
BBX 8 8 1 -2
BITMAP
99
9A
AA
AC
CC
C8
00
10
ENDCHAR
STARTCHAR uni1E8A
ENCODING 7818
SWIDTH 620 0
DWIDTH 7 0
BBX 8 10 0 0
BITMAP
08
00
23
32
14
18
18
2C
44
C6
ENDCHAR
STARTCHAR uni1E8B
ENCODING 7819
SWIDTH 541 0
DWIDTH 6 0
BBX 6 8 1 0
BITMAP
10
00
64
28
30
30
50
88
ENDCHAR
STARTCHAR uni1E8C
ENCODING 7820
SWIDTH 620 0
DWIDTH 7 0
BBX 8 10 0 0
BITMAP
14
00
23
32
14
18
18
2C
44
C6
ENDCHAR
STARTCHAR uni1E8D
ENCODING 7821
SWIDTH 541 0
DWIDTH 6 0
BBX 6 8 1 0
BITMAP
28
00
64
28
30
30
50
88
ENDCHAR
STARTCHAR uni1E8E
ENCODING 7822
SWIDTH 608 0
DWIDTH 7 0
BBX 6 10 2 0
BITMAP
10
00
8C
48
50
70
20
60
40
40
ENDCHAR
STARTCHAR uni1E8F
ENCODING 7823
SWIDTH 548 0
DWIDTH 6 0
BBX 6 10 1 -2
BITMAP
20
00
C4
48
58
50
60
60
40
80
ENDCHAR
STARTCHAR uni1E90
ENCODING 7824
SWIDTH 578 0
DWIDTH 6 0
BBX 7 10 0 0
BITMAP
1C
00
3E
04
08
18
30
60
40
FC
ENDCHAR
STARTCHAR uni1E91
ENCODING 7825
SWIDTH 536 0
DWIDTH 6 0
BBX 6 8 0 0
BITMAP
38
00
7C
08
10
20
40
F8
ENDCHAR
STARTCHAR uni1E92
ENCODING 7826
SWIDTH 578 0
DWIDTH 6 0
BBX 7 10 0 -2
BITMAP
3E
04
08
18
30
60
40
FC
00
20
ENDCHAR
STARTCHAR uni1E93
ENCODING 7827
SWIDTH 536 0
DWIDTH 6 0
BBX 6 8 0 -2
BITMAP
7C
08
10
20
40
F8
00
20
ENDCHAR
STARTCHAR uni1E94
ENCODING 7828
SWIDTH 578 0
DWIDTH 6 0
BBX 7 10 0 -2
BITMAP
3E
04
08
18
30
60
40
FC
00
70
ENDCHAR
STARTCHAR uni1E95
ENCODING 7829
SWIDTH 536 0
DWIDTH 6 0
BBX 6 8 0 -2
BITMAP
7C
08
10
20
40
F8
00
70
ENDCHAR
STARTCHAR uni1E96
ENCODING 7830
SWIDTH 620 0
DWIDTH 7 0
BBX 6 10 1 -2
BITMAP
20
60
5C
74
64
44
88
88
00
70
ENDCHAR
STARTCHAR uni1E97
ENCODING 7831
SWIDTH 383 0
DWIDTH 4 0
BBX 4 9 1 0
BITMAP
50
00
60
F0
40
40
80
80
60
ENDCHAR
STARTCHAR uni1E98
ENCODING 7832
SWIDTH 795 0
DWIDTH 9 0
BBX 8 9 1 0
BITMAP
18
18
00
99
9A
AA
AC
CC
C8
ENDCHAR
STARTCHAR uni1E99
ENCODING 7833
SWIDTH 548 0
DWIDTH 6 0
BBX 6 11 1 -2
BITMAP
30
30
00
C4
48
58
50
60
60
40
80
ENDCHAR
STARTCHAR uni1EA0
ENCODING 7840
SWIDTH 687 0
DWIDTH 8 0
BBX 7 10 0 -2
BITMAP
0C
0C
14
34
24
7E
42
82
00
10
ENDCHAR
STARTCHAR uni1EA1
ENCODING 7841
SWIDTH 608 0
DWIDTH 7 0
BBX 6 8 1 -2
BITMAP
3C
64
4C
98
B8
E8
00
20
ENDCHAR
STARTCHAR uni1EA4
ENCODING 7844
SWIDTH 687 0
DWIDTH 8 0
BBX 7 11 0 0
BITMAP
1C
00
1C
0C
0C
14
34
24
7E
42
82
ENDCHAR
STARTCHAR uni1EA5
ENCODING 7845
SWIDTH 608 0
DWIDTH 7 0
BBX 6 9 1 0
BITMAP
38
00
28
3C
64
4C
98
B8
E8
ENDCHAR
STARTCHAR uni1EA6
ENCODING 7846
SWIDTH 687 0
DWIDTH 8 0
BBX 7 11 0 0
BITMAP
18
00
1C
0C
0C
14
34
24
7E
42
82
ENDCHAR
STARTCHAR uni1EA7
ENCODING 7847
SWIDTH 608 0
DWIDTH 7 0
BBX 6 9 1 0
BITMAP
18
00
28
3C
64
4C
98
B8
E8
ENDCHAR
STARTCHAR uni1EAA
ENCODING 7850
SWIDTH 687 0
DWIDTH 8 0
BBX 7 11 0 0
BITMAP
3C
00
1C
0C
0C
14
34
24
7E
42
82
ENDCHAR
STARTCHAR uni1EAB
ENCODING 7851
SWIDTH 608 0
DWIDTH 7 0
BBX 6 9 1 0
BITMAP
3C
00
28
3C
64
4C
98
B8
E8
ENDCHAR
STARTCHAR uni1EAC
ENCODING 7852
SWIDTH 687 0
DWIDTH 8 0
BBX 7 12 0 -2
BITMAP
1C
00
0C
0C
14
34
24
7E
42
82
00
10
ENDCHAR
STARTCHAR uni1EAD
ENCODING 7853
SWIDTH 608 0
DWIDTH 7 0
BBX 6 10 1 -2
BITMAP
38
00
3C
64
4C
98
B8
E8
00
20
ENDCHAR
STARTCHAR uni1EAE
ENCODING 7854
SWIDTH 687 0
DWIDTH 8 0
BBX 7 12 0 0
BITMAP
1C
00
3C
00
0C
0C
14
34
24
7E
42
82
ENDCHAR
STARTCHAR uni1EAF
ENCODING 7855
SWIDTH 608 0
DWIDTH 7 0
BBX 6 10 1 0
BITMAP
38
00
78
00
3C
64
4C
98
B8
E8
ENDCHAR
STARTCHAR uni1EB0
ENCODING 7856
SWIDTH 687 0
DWIDTH 8 0
BBX 7 12 0 0
BITMAP
18
00
3C
00
0C
0C
14
34
24
7E
42
82
ENDCHAR
STARTCHAR uni1EB1
ENCODING 7857
SWIDTH 608 0
DWIDTH 7 0
BBX 6 10 1 0
BITMAP
30
00
78
00
3C
64
4C
98
B8
E8
ENDCHAR
STARTCHAR uni1EB4
ENCODING 7860
SWIDTH 687 0
DWIDTH 8 0
BBX 7 12 0 0
BITMAP
3C
00
3C
00
0C
0C
14
34
24
7E
42
82
ENDCHAR
STARTCHAR uni1EB5
ENCODING 7861
SWIDTH 608 0
DWIDTH 7 0
BBX 6 10 1 0
BITMAP
78
00
78
00
3C
64
4C
98
B8
E8
ENDCHAR
STARTCHAR uni1EB6
ENCODING 7862
SWIDTH 687 0
DWIDTH 8 0
BBX 7 12 0 -2
BITMAP
3C
00
0C
0C
14
34
24
7E
42
82
00
10
ENDCHAR
STARTCHAR uni1EB7
ENCODING 7863
SWIDTH 608 0
DWIDTH 7 0
BBX 6 10 1 -2
BITMAP
78
00
3C
64
4C
98
B8
E8
00
20
ENDCHAR
STARTCHAR uni1EB8
ENCODING 7864
SWIDTH 547 0
DWIDTH 6 0
BBX 6 10 1 -2
BITMAP
7C
40
40
78
40
C0
80
F8
00
20
ENDCHAR
STARTCHAR uni1EB9
ENCODING 7865
SWIDTH 529 0
DWIDTH 6 0
BBX 5 8 1 -2
BITMAP
38
48
90
E0
88
70
00
20
ENDCHAR
STARTCHAR uni1EBC
ENCODING 7868
SWIDTH 547 0
DWIDTH 6 0
BBX 6 10 1 0
BITMAP
78
00
7C
40
40
78
40
C0
80
F8
ENDCHAR
STARTCHAR uni1EBD
ENCODING 7869
SWIDTH 529 0
DWIDTH 6 0
BBX 5 8 1 0
BITMAP
78
00
38
48
90
E0
88
70
ENDCHAR
STARTCHAR uni1EBE
ENCODING 7870
SWIDTH 547 0
DWIDTH 6 0
BBX 6 11 1 0
BITMAP
38
00
28
7C
40
40
78
40
C0
80
F8
ENDCHAR
STARTCHAR uni1EBF
ENCODING 7871
SWIDTH 529 0
DWIDTH 6 0
BBX 5 9 1 0
BITMAP
38
00
28
38
48
90
E0
88
70
ENDCHAR
STARTCHAR uni1EC0
ENCODING 7872
SWIDTH 547 0
DWIDTH 6 0
BBX 6 11 1 0
BITMAP
30
00
28
7C
40
40
78
40
C0
80
F8
ENDCHAR
STARTCHAR uni1EC1
ENCODING 7873
SWIDTH 529 0
DWIDTH 6 0
BBX 5 9 1 0
BITMAP
30
00
28
38
48
90
E0
88
70
ENDCHAR
STARTCHAR uni1EC4
ENCODING 7876
SWIDTH 547 0
DWIDTH 6 0
BBX 6 11 1 0
BITMAP
78
00
28
7C
40
40
78
40
C0
80
F8
ENDCHAR
STARTCHAR uni1EC5
ENCODING 7877
SWIDTH 529 0
DWIDTH 6 0
BBX 5 9 1 0
BITMAP
78
00
28
38
48
90
E0
88
70
ENDCHAR
STARTCHAR uni1EC6
ENCODING 7878
SWIDTH 547 0
DWIDTH 6 0
BBX 6 12 1 -2
BITMAP
70
00
7C
40
40
78
40
C0
80
F8
00
20
ENDCHAR
STARTCHAR uni1EC7
ENCODING 7879
SWIDTH 529 0
DWIDTH 6 0
BBX 5 10 1 -2
BITMAP
70
00
38
48
90
E0
88
70
00
20
ENDCHAR
STARTCHAR uni1ECA
ENCODING 7882
SWIDTH 289 0
DWIDTH 3 0
BBX 3 10 1 -2
BITMAP
20
20
40
40
40
40
80
80
00
40
ENDCHAR
STARTCHAR uni1ECB
ENCODING 7883
SWIDTH 289 0
DWIDTH 3 0
BBX 3 10 1 -2
BITMAP
20
00
60
40
40
40
80
80
00
40
ENDCHAR
STARTCHAR uni1ECC
ENCODING 7884
SWIDTH 777 0
DWIDTH 9 0
BBX 8 10 1 -2
BITMAP
1E
22
43
81
82
82
C4
78
00
10
ENDCHAR
STARTCHAR uni1ECD
ENCODING 7885
SWIDTH 566 0
DWIDTH 6 0
BBX 5 8 1 -2
BITMAP
38
48
88
88
98
70
00
20
ENDCHAR
STARTCHAR uni1ED0
ENCODING 7888
SWIDTH 777 0
DWIDTH 9 0
BBX 8 11 1 0
BITMAP
1C
00
14
1E
22
43
81
82
82
C4
78
ENDCHAR
STARTCHAR uni1ED1
ENCODING 7889
SWIDTH 566 0
DWIDTH 6 0
BBX 5 9 1 0
BITMAP
38
00
28
38
48
88
88
98
70
ENDCHAR
STARTCHAR uni1ED2
ENCODING 7890
SWIDTH 777 0
DWIDTH 9 0
BBX 8 11 1 0
BITMAP
0C
00
14
1E
22
43
81
82
82
C4
78
ENDCHAR
STARTCHAR uni1ED3
ENCODING 7891
SWIDTH 566 0
DWIDTH 6 0
BBX 5 9 1 0
BITMAP
30
00
28
38
48
88
88
98
70
ENDCHAR
STARTCHAR uni1ED6
ENCODING 7894
SWIDTH 777 0
DWIDTH 9 0
BBX 8 11 1 0
BITMAP
1E
00
14
1E
22
43
81
82
82
C4
78
ENDCHAR
STARTCHAR uni1ED7
ENCODING 7895
SWIDTH 566 0
DWIDTH 6 0
BBX 5 9 1 0
BITMAP
78
00
28
38
48
88
88
98
70
ENDCHAR
STARTCHAR uni1ED8
ENCODING 7896
SWIDTH 777 0
DWIDTH 9 0
BBX 8 12 1 -2
BITMAP
1C
00
1E
22
43
81
82
82
C4
78
00
10
ENDCHAR
STARTCHAR uni1ED9
ENCODING 7897
SWIDTH 566 0
DWIDTH 6 0
BBX 5 10 1 -2
BITMAP
70
00
38
48
88
88
98
70
00
20
ENDCHAR
STARTCHAR uni1EDA
ENCODING 7898
SWIDTH 777 0
DWIDTH 9 0
BBX 10 10 1 0
BITMAP
0E00
0000
1E40
22C0
4380
8100
8200
8200
C400
7800
ENDCHAR
STARTCHAR uni1EDB
ENCODING 7899
SWIDTH 566 0
DWIDTH 6 0
BBX 7 8 1 0
BITMAP
1C
00
3A
4E
8C
88
98
70
ENDCHAR
STARTCHAR uni1EDC
ENCODING 7900
SWIDTH 777 0
DWIDTH 9 0
BBX 10 10 1 0
BITMAP
0600
0000
1E40
22C0
4380
8100
8200
8200
C400
7800
ENDCHAR
STARTCHAR uni1EDD
ENCODING 7901
SWIDTH 566 0
DWIDTH 6 0
BBX 7 8 1 0
BITMAP
18
00
3A
4E
8C
88
98
70
ENDCHAR
STARTCHAR uni1EE0
ENCODING 7904
SWIDTH 777 0
DWIDTH 9 0
BBX 10 10 1 0
BITMAP
0F00
0000
1E40
22C0
4380
8100
8200
8200
C400
7800
ENDCHAR
STARTCHAR uni1EE1
ENCODING 7905
SWIDTH 566 0
DWIDTH 6 0
BBX 7 8 1 0
BITMAP
3C
00
3A
4E
8C
88
98
70
ENDCHAR
STARTCHAR uni1EE2
ENCODING 7906
SWIDTH 777 0
DWIDTH 9 0
BBX 10 10 1 -2
BITMAP
1E40
22C0
4380
8100
8200
8200
C400
7800
0000
1000
ENDCHAR
STARTCHAR uni1EE3
ENCODING 7907
SWIDTH 566 0
DWIDTH 6 0
BBX 7 8 1 -2
BITMAP
3A
4E
8C
88
98
70
00
20
ENDCHAR
STARTCHAR uni1EE4
ENCODING 7908
SWIDTH 693 0
DWIDTH 8 0
BBX 7 10 1 -2
BITMAP
42
42
44
C4
84
84
88
78
00
10
ENDCHAR
STARTCHAR uni1EE5
ENCODING 7909
SWIDTH 620 0
DWIDTH 7 0
BBX 6 8 1 -2
BITMAP
44
44
88
98
B8
E8
00
20
ENDCHAR
STARTCHAR uni1EE8
ENCODING 7912
SWIDTH 693 0
DWIDTH 8 0
BBX 9 10 1 0
BITMAP
0E00
0000
4280
4380
4500
C400
8400
8400
8800
7800
ENDCHAR
STARTCHAR uni1EE9
ENCODING 7913
SWIDTH 620 0
DWIDTH 7 0
BBX 8 8 1 0
BITMAP
1C
00
45
47
8A
98
B8
E8
ENDCHAR
STARTCHAR uni1EEA
ENCODING 7914
SWIDTH 693 0
DWIDTH 8 0
BBX 9 10 1 0
BITMAP
0C00
0000
4280
4380
4500
C400
8400
8400
8800
7800
ENDCHAR
STARTCHAR uni1EEB
ENCODING 7915
SWIDTH 620 0
DWIDTH 7 0
BBX 8 8 1 0
BITMAP
0C
00
45
47
8A
98
B8
E8
ENDCHAR
STARTCHAR uni1EEE
ENCODING 7918
SWIDTH 693 0
DWIDTH 8 0
BBX 9 10 1 0
BITMAP
1E00
0000
4280
4380
4500
C400
8400
8400
8800
7800
ENDCHAR
STARTCHAR uni1EEF
ENCODING 7919
SWIDTH 620 0
DWIDTH 7 0
BBX 8 8 1 0
BITMAP
1E
00
45
47
8A
98
B8
E8
ENDCHAR
STARTCHAR uni1EF0
ENCODING 7920
SWIDTH 693 0
DWIDTH 8 0
BBX 9 10 1 -2
BITMAP
4280
4380
4500
C400
8400
8400
8800
7800
0000
1000
ENDCHAR
STARTCHAR uni1EF1
ENCODING 7921
SWIDTH 620 0
DWIDTH 7 0
BBX 8 8 1 -2
BITMAP
45
47
8A
98
B8
E8
00
10
ENDCHAR
STARTCHAR Ygrave
ENCODING 7922
SWIDTH 608 0
DWIDTH 7 0
BBX 6 10 2 0
BITMAP
30
00
8C
48
50
70
20
60
40
40
ENDCHAR
STARTCHAR ygrave
ENCODING 7923
SWIDTH 548 0
DWIDTH 6 0
BBX 6 10 1 -2
BITMAP
30
00
C4
48
58
50
60
60
40
80
ENDCHAR
STARTCHAR uni1EF4
ENCODING 7924
SWIDTH 608 0
DWIDTH 7 0
BBX 6 10 2 -2
BITMAP
8C
48
50
70
20
60
40
40
00
20
ENDCHAR
STARTCHAR uni1EF5
ENCODING 7925
SWIDTH 548 0
DWIDTH 6 0
BBX 6 10 1 -4
BITMAP
C4
48
58
50
60
60
40
80
00
20
ENDCHAR
STARTCHAR uni1EF8
ENCODING 7928
SWIDTH 608 0
DWIDTH 7 0
BBX 6 10 2 0
BITMAP
78
00
8C
48
50
70
20
60
40
40
ENDCHAR
STARTCHAR uni1EF9
ENCODING 7929
SWIDTH 548 0
DWIDTH 6 0
BBX 6 10 1 -2
BITMAP
78
00
C4
48
58
50
60
60
40
80
ENDCHAR
STARTCHAR uni2000
ENCODING 8192
SWIDTH 500 0
DWIDTH 6 0
BBX 1 1 0 0
BITMAP
00
ENDCHAR
STARTCHAR uni2001
ENCODING 8193
SWIDTH 1000 0
DWIDTH 11 0
BBX 1 1 0 0
BITMAP
00
ENDCHAR
STARTCHAR uni2002
ENCODING 8194
SWIDTH 500 0
DWIDTH 6 0
BBX 1 1 0 0
BITMAP
00
ENDCHAR
STARTCHAR uni2003
ENCODING 8195
SWIDTH 1000 0
DWIDTH 11 0
BBX 1 1 0 0
BITMAP
00
ENDCHAR
STARTCHAR uni2004
ENCODING 8196
SWIDTH 333 0
DWIDTH 4 0
BBX 1 1 0 0
BITMAP
00
ENDCHAR
STARTCHAR uni2005
ENCODING 8197
SWIDTH 250 0
DWIDTH 3 0
BBX 1 1 0 0
BITMAP
00
ENDCHAR
STARTCHAR uni2006
ENCODING 8198
SWIDTH 167 0
DWIDTH 2 0
BBX 1 1 0 0
BITMAP
00
ENDCHAR
STARTCHAR uni2007
ENCODING 8199
SWIDTH 633 0
DWIDTH 7 0
BBX 1 1 0 0
BITMAP
00
ENDCHAR
STARTCHAR uni2008
ENCODING 8200
SWIDTH 316 0
DWIDTH 3 0
BBX 1 1 0 0
BITMAP
00
ENDCHAR
STARTCHAR uni2009
ENCODING 8201
SWIDTH 200 0
DWIDTH 2 0
BBX 1 1 0 0
BITMAP
00
ENDCHAR
STARTCHAR uni200A
ENCODING 8202
SWIDTH 100 0
DWIDTH 1 0
BBX 1 1 0 0
BITMAP
00
ENDCHAR
STARTCHAR uni200B
ENCODING 8203
SWIDTH 0 0
DWIDTH 0 0
BBX 1 1 0 0
BITMAP
00
ENDCHAR
STARTCHAR uni2010
ENCODING 8208
SWIDTH 313 0
DWIDTH 3 0
BBX 3 1 1 3
BITMAP
E0
ENDCHAR
STARTCHAR uni2011
ENCODING 8209
SWIDTH 313 0
DWIDTH 3 0
BBX 3 1 1 3
BITMAP
E0
ENDCHAR
STARTCHAR figuredash
ENCODING 8210
SWIDTH 500 0
DWIDTH 6 0
BBX 5 1 1 3
BITMAP
F8
ENDCHAR
STARTCHAR endash
ENCODING 8211
SWIDTH 500 0
DWIDTH 6 0
BBX 5 1 1 3
BITMAP
F8
ENDCHAR
STARTCHAR emdash
ENCODING 8212
SWIDTH 1000 0
DWIDTH 11 0
BBX 10 1 1 3
BITMAP
FFC0
ENDCHAR
STARTCHAR afii00208
ENCODING 8213
SWIDTH 1000 0
DWIDTH 11 0
BBX 10 1 1 3
BITMAP
FFC0
ENDCHAR
STARTCHAR quoteleft
ENCODING 8216
SWIDTH 217 0
DWIDTH 2 0
BBX 2 3 2 5
BITMAP
40
80
C0
ENDCHAR
STARTCHAR quoteright
ENCODING 8217
SWIDTH 217 0
DWIDTH 2 0
BBX 2 3 2 5
BITMAP
40
C0
80
ENDCHAR
STARTCHAR quotesinglbase
ENCODING 8218
SWIDTH 217 0
DWIDTH 2 0
BBX 2 4 0 -2
BITMAP
40
C0
40
80
ENDCHAR
STARTCHAR quotereversed
ENCODING 8219
SWIDTH 217 0
DWIDTH 2 0
BBX 2 3 2 5
BITMAP
80
C0
40
ENDCHAR
STARTCHAR quotedblleft
ENCODING 8220
SWIDTH 361 0
DWIDTH 4 0
BBX 3 3 2 5
BITMAP
60
A0
A0
ENDCHAR
STARTCHAR quotedblright
ENCODING 8221
SWIDTH 361 0
DWIDTH 4 0
BBX 3 3 2 5
BITMAP
E0
A0
A0
ENDCHAR
STARTCHAR quotedblbase
ENCODING 8222
SWIDTH 361 0
DWIDTH 4 0
BBX 3 4 0 -2
BITMAP
60
A0
A0
A0
ENDCHAR
STARTCHAR uni201F
ENCODING 8223
SWIDTH 361 0
DWIDTH 4 0
BBX 3 3 2 5
BITMAP
E0
A0
A0
ENDCHAR
STARTCHAR dagger
ENCODING 8224
SWIDTH 633 0
DWIDTH 7 0
BBX 5 10 2 -2
BITMAP
10
20
20
F8
20
20
40
40
40
40
ENDCHAR
STARTCHAR daggerdbl
ENCODING 8225
SWIDTH 633 0
DWIDTH 7 0
BBX 5 10 2 -2
BITMAP
10
10
20
78
20
20
F0
20
40
40
ENDCHAR
STARTCHAR bullet
ENCODING 8226
SWIDTH 633 0
DWIDTH 7 0
BBX 4 3 2 2
BITMAP
70
F0
E0
ENDCHAR
STARTCHAR ellipsis
ENCODING 8230
SWIDTH 1000 0
DWIDTH 11 0
BBX 9 1 1 0
BITMAP
8880
ENDCHAR
STARTCHAR perthousand
ENCODING 8240
SWIDTH 1027 0
DWIDTH 11 0
BBX 11 8 1 0
BITMAP
3200
5400
5800
6800
16C0
2B20
4B20
8DC0
ENDCHAR
STARTCHAR guilsinglleft
ENCODING 8249
SWIDTH 328 0
DWIDTH 4 0
BBX 3 6 1 0
BITMAP
20
40
C0
80
40
40
ENDCHAR
STARTCHAR guilsinglright
ENCODING 8250
SWIDTH 328 0
DWIDTH 4 0
BBX 3 6 1 0
BITMAP
40
40
20
60
40
80
ENDCHAR
STARTCHAR fraction
ENCODING 8260
SWIDTH 117 0
DWIDTH 1 0
BBX 8 8 -2 0
BITMAP
01
02
04
08
10
20
40
80
ENDCHAR
STARTCHAR oneinferior
ENCODING 8321
SWIDTH 392 0
DWIDTH 4 0
BBX 2 5 -6 -3
BITMAP
C0
40
80
80
80
ENDCHAR
STARTCHAR twoinferior
ENCODING 8322
SWIDTH 392 0
DWIDTH 4 0
BBX 4 5 -5 -3
BITMAP
70
10
20
40
E0
ENDCHAR
STARTCHAR threeinferior
ENCODING 8323
SWIDTH 392 0
DWIDTH 4 0
BBX 3 5 -5 -3
BITMAP
60
20
60
20
C0
ENDCHAR
STARTCHAR uni20A5
ENCODING 8357
SWIDTH 934 0
DWIDTH 10 0
BBX 9 10 1 -2
BITMAP
0100
0200
5D80
6E80
6C80
C880
9900
A900
2000
4000
ENDCHAR
STARTCHAR uni20A6
ENCODING 8358
SWIDTH 741 0
DWIDTH 8 0
BBX 8 8 1 0
BITMAP
21
61
7F
52
4A
7F
86
84
ENDCHAR
STARTCHAR uni20A9
ENCODING 8361
SWIDTH 886 0
DWIDTH 10 0
BBX 9 8 2 0
BITMAP
8880
8880
FF00
9900
AA00
FF00
CC00
CC00
ENDCHAR
STARTCHAR Euro
ENCODING 8364
SWIDTH 679 0
DWIDTH 7 0
BBX 9 8 -1 0
BITMAP
0780
1800
FE00
3000
2000
FE00
3100
1E00
ENDCHAR
STARTCHAR uni20AD
ENCODING 8365
SWIDTH 635 0
DWIDTH 7 0
BBX 7 8 1 0
BITMAP
26
4C
58
FE
70
50
88
8C
ENDCHAR
STARTCHAR uni2103
ENCODING 8451
SWIDTH 935 0
DWIDTH 10 0
BBX 9 8 2 0
BITMAP
C780
D800
1000
3000
2000
2000
3100
1E00
ENDCHAR
STARTCHAR uni2109
ENCODING 8457
SWIDTH 792 0
DWIDTH 9 0
BBX 8 8 2 0
BITMAP
DF
D0
10
10
1E
30
20
20
ENDCHAR
STARTCHAR trademark
ENCODING 8482
SWIDTH 801 0
DWIDTH 9 0
BBX 8 4 2 4
BITMAP
E9
4B
4F
5E
ENDCHAR
STARTCHAR uni212A
ENCODING 8490
SWIDTH 635 0
DWIDTH 7 0
BBX 7 8 1 0
BITMAP
26
4C
58
70
70
50
88
8C
ENDCHAR
STARTCHAR uni212B
ENCODING 8491
SWIDTH 687 0
DWIDTH 8 0
BBX 7 10 0 0
BITMAP
0C
0C
0C
0C
14
34
24
7E
42
82
ENDCHAR
STARTCHAR uni2132
ENCODING 8498
SWIDTH 536 0
DWIDTH 6 0
BBX 6 8 1 0
BITMAP
04
04
0C
78
08
08
08
F8
ENDCHAR
STARTCHAR minus
ENCODING 8722
SWIDTH 633 0
DWIDTH 7 0
BBX 7 1 1 3
BITMAP
FE
ENDCHAR
STARTCHAR fraction
ENCODING 8725
SWIDTH 117 0
DWIDTH 1 0
BBX 8 8 -2 0
BITMAP
01
02
04
08
10
20
40
80
ENDCHAR
STARTCHAR periodcentered
ENCODING 8729
SWIDTH 316 0
DWIDTH 7 0
BBX 2 1 3 3
BITMAP
C0
ENDCHAR
STARTCHAR uni2236
ENCODING 8758
SWIDTH 316 0
DWIDTH 3 0
BBX 2 6 1 0
BITMAP
40
00
00
00
00
80
ENDCHAR
STARTCHAR uni2259
ENCODING 8793
SWIDTH 633 0
DWIDTH 7 0
BBX 7 6 1 1
BITMAP
38
00
FE
00
00
FE
ENDCHAR
STARTCHAR uni225A
ENCODING 8794
SWIDTH 633 0
DWIDTH 7 0
BBX 7 6 1 1
BITMAP
38
00
FE
00
00
FE
ENDCHAR
STARTCHAR notequal
ENCODING 8800
SWIDTH 633 0
DWIDTH 7 0
BBX 7 10 1 -2
BITMAP
02
04
08
FE
10
10
FE
40
40
80
ENDCHAR
STARTCHAR equivalence
ENCODING 8801
SWIDTH 633 0
DWIDTH 7 0
BBX 7 5 0 1
BITMAP
FE
00
FE
00
FE
ENDCHAR
STARTCHAR uni2262
ENCODING 8802
SWIDTH 633 0
DWIDTH 7 0
BBX 7 10 0 -1
BITMAP
02
04
08
FE
10
FE
20
FE
40
80
ENDCHAR
STARTCHAR lessequal
ENCODING 8804
SWIDTH 633 0
DWIDTH 7 0
BBX 7 9 1 -2
BITMAP
02
0C
30
C0
60
18
04
00
FE
ENDCHAR
STARTCHAR greaterequal
ENCODING 8805
SWIDTH 633 0
DWIDTH 7 0
BBX 7 9 0 -2
BITMAP
40
30
0C
06
18
60
80
00
FE
ENDCHAR
STARTCHAR uni226E
ENCODING 8814
SWIDTH 633 0
DWIDTH 7 0
BBX 7 10 1 -1
BITMAP
02
04
0A
0C
30
D0
60
58
44
80
ENDCHAR
STARTCHAR uni226F
ENCODING 8815
SWIDTH 633 0
DWIDTH 7 0
BBX 7 10 0 -1
BITMAP
02
04
48
38
1C
16
38
60
C0
80
ENDCHAR
STARTCHAR uni2270
ENCODING 8816
SWIDTH 633 0
DWIDTH 7 0
BBX 7 10 1 -2
BITMAP
02
06
0C
38
D0
70
38
44
40
FE
ENDCHAR
STARTCHAR uni2271
ENCODING 8817
SWIDTH 633 0
DWIDTH 7 0
BBX 7 10 0 -2
BITMAP
02
44
38
0C
16
18
60
C0
40
FE
ENDCHAR
STARTCHAR fi
ENCODING -1
SWIDTH 639 0
DWIDTH 7 0
BBX 7 11 1 -2
BITMAP
18
22
20
7E
44
44
44
44
48
80
80
ENDCHAR
STARTCHAR fl
ENCODING -1
SWIDTH 639 0
DWIDTH 7 0
BBX 7 11 1 -2
BITMAP
1E
22
26
74
44
44
44
44
48
80
80
ENDCHAR
ENDFONT
